<svg width="100" height="100" viewBox="0 0 100 100" fill="none" xmlns="http://www.w3.org/2000/svg">
<path d="M54.9374 84.6131C73.4248 84.6131 88.4127 69.7461 88.4127 51.3425C88.4127 32.9389 73.3587 18.072 54.9374 18.072C36.4501 18.072 21.4622 32.9389 21.4622 51.3425C21.4622 69.7461 36.4501 84.6131 54.9374 84.6131Z" fill="#F1F3F9" stroke="#D6DCE8" stroke-width="0.827273" stroke-miterlimit="10"/>
<path d="M86.2351 29.5335C87.7302 29.5335 88.9422 28.3313 88.9422 26.8482C88.9422 25.3652 87.7302 24.163 86.2351 24.163C84.74 24.163 83.528 25.3652 83.528 26.8482C83.528 28.3313 84.74 29.5335 86.2351 29.5335Z" fill="#F1F3F9"/>
<path d="M90.1959 19.0546C91.2169 19.0546 92.0446 18.2336 92.0446 17.2208C92.0446 16.208 91.2169 15.387 90.1959 15.387C89.1749 15.387 88.3472 16.208 88.3472 17.2208C88.3472 18.2336 89.1749 19.0546 90.1959 19.0546Z" fill="#F1F3F9"/>
<path d="M23.2451 29.468C24.2661 29.468 25.0938 28.647 25.0938 27.6342C25.0938 26.6214 24.2661 25.8004 23.2451 25.8004C22.2241 25.8004 21.3964 26.6214 21.3964 27.6342C21.3964 28.647 22.2241 29.468 23.2451 29.468Z" fill="#F1F3F9"/>
<path d="M11.955 64.8342C13.8512 64.8342 15.3884 63.3095 15.3884 61.4286C15.3884 59.5477 13.8512 58.0229 11.955 58.0229C10.0588 58.0229 8.52167 59.5477 8.52167 61.4286C8.52167 63.3095 10.0588 64.8342 11.955 64.8342Z" fill="#F1F3F9"/>
<path d="M77.7171 34.7073L78.2453 76.885C78.2453 78.3258 77.0568 79.4392 75.6043 79.4392H34.1399C32.6873 79.4392 31.4988 78.2603 31.4988 76.885V22.6566C31.4988 21.2157 32.6873 20.1024 34.1399 20.1024H64.1818L77.7171 34.7073Z" fill="white" stroke="#D6DCE8" stroke-width="0.827273" stroke-miterlimit="10"/>
<path d="M51.7023 70.9907H43.5811C43.251 70.9907 42.9869 70.6632 42.9869 70.2703C42.9869 69.8773 43.251 69.5498 43.5811 69.5498H51.7023C52.0325 69.5498 52.2966 69.8773 52.2966 70.2703C52.2966 70.7287 52.0325 70.9907 51.7023 70.9907Z" fill="#D6DCE8"/>
<path d="M47.0809 70.9907H38.2334C37.9033 70.9907 37.6392 70.6632 37.6392 70.2703C37.6392 69.8773 37.9033 69.5498 38.2334 69.5498H47.0809C47.411 69.5498 47.6751 69.8773 47.6751 70.2703C47.6751 70.7287 47.411 70.9907 47.0809 70.9907Z" fill="#D6DCE8"/>
<path d="M58.3714 28.9439H38.4975C38.0353 28.9439 37.6392 28.5509 37.6392 28.0925C37.6392 27.634 38.0353 27.2411 38.4975 27.2411H58.3714C58.8336 27.2411 59.2297 27.634 59.2297 28.0925C59.2297 28.5509 58.8336 28.9439 58.3714 28.9439Z" fill="#D6DCE8"/>
<path d="M46.1565 33.6592H38.4975C38.0353 33.6592 37.6392 33.2663 37.6392 32.8078C37.6392 32.3494 38.0353 31.9564 38.4975 31.9564H46.0905C46.5527 31.9564 46.9488 32.3494 46.9488 32.8078C46.9488 33.2663 46.5527 33.6592 46.1565 33.6592Z" fill="#D6DCE8"/>
<path d="M64.1825 20.1023V31.7601C64.1825 33.3975 65.6351 34.7073 67.2858 34.7073H77.7179" fill="#D6DCE8"/>
<path d="M54.4463 59.6571H48.7087H46.1856H38.5549C38.2472 59.6571 37.9395 59.9632 37.9395 60.3917C37.9395 60.759 38.1857 61.1262 38.5549 61.1262H46.1856H48.7087H54.4463C54.754 61.1262 55.0616 60.8202 55.0616 60.3917C55.0001 59.9632 54.754 59.6571 54.4463 59.6571Z" fill="#D6DCE8"/>
<path d="M53.7249 54.3316H45.2327H42.3404H38.5549C38.2472 54.3316 37.9395 54.6377 37.9395 55.0662C37.9395 55.4335 38.1857 55.8008 38.5549 55.8008H42.3404H45.2327H53.7249C54.0326 55.8008 54.3403 55.4947 54.3403 55.0662C54.2788 54.6377 54.0326 54.3316 53.7249 54.3316Z" fill="#D6DCE8"/>
<path d="M57.8683 48.9446H55.6529H53.4376H38.5549C38.2472 48.9446 37.9395 49.2507 37.9395 49.6792C37.9395 50.0465 38.1857 50.4138 38.5549 50.4138H53.4376H55.8991H57.8067C58.1144 50.4138 58.4221 50.1077 58.4221 49.6792C58.4837 49.3119 58.176 48.9446 57.8683 48.9446Z" fill="#D6DCE8"/>
<path d="M71.9103 60.5774H67.8782H63.3615H55.6396C55.0887 60.5774 54.5379 61.1232 54.5379 61.8873C54.5379 62.5422 54.9786 63.1971 55.6396 63.1971H63.3615H67.8782H71.9103C72.4612 63.1971 73.012 62.6513 73.012 61.8873C72.9018 61.1232 72.4612 60.5774 71.9103 60.5774Z" fill="#D6DCE8"/>
<path d="M71.9079 54.0278H61.9565H56.7696H54.9813C54.4295 54.0278 53.8777 54.5736 53.8777 55.3377C53.8777 55.9926 54.3191 56.6475 54.9813 56.6475H56.7696H61.9565H71.9079C72.4597 56.6475 73.0115 56.1017 73.0115 55.3377C72.9011 54.5736 72.4597 54.0278 71.9079 54.0278Z" fill="#D6DCE8"/>
<path d="M72.007 47.4787H68.0492H64.0913H58.2751C57.7254 47.4787 57.1757 48.0245 57.1757 48.7886C57.1757 49.4435 57.6154 50.0984 58.2751 50.0984H64.0913H68.4889H71.897C72.4467 50.0984 72.9964 49.5527 72.9964 48.7886C73.1064 48.1336 72.5567 47.4787 72.007 47.4787Z" fill="#D6DCE8"/>
<path d="M71.97 43.6189H64.77H62.9854H38.5549C38.2472 43.6189 37.9395 43.925 37.9395 44.3535C37.9395 44.7208 38.1857 45.0881 38.5549 45.0881H62.9854H64.77H71.9084C72.3392 45.0881 72.5853 44.782 72.5853 44.3535C72.5853 43.9862 72.3392 43.6189 71.97 43.6189Z" fill="#D6DCE8"/>
<path d="M90.6284 76.4303L83.7352 69.4751C83.0282 68.7618 82.0119 68.4943 81.084 68.6726L79.4049 66.9784C84.1771 61.0041 83.7794 52.221 78.3002 46.6926C73.7047 42.0558 66.8557 41.0303 61.2881 43.6608C59.7416 44.3742 58.2834 45.3996 56.9578 46.6926C55.3229 48.2976 54.174 50.2147 53.467 52.2656C53.1135 53.2464 52.8484 54.2273 52.7158 55.2527C52.053 59.8449 53.467 64.7046 56.9578 68.2268C57.0462 68.3159 57.0904 68.3605 57.1787 68.4497C60.0951 71.3031 63.851 72.6852 67.6511 72.6852C71.0093 72.6852 74.3675 71.5706 77.1071 69.3414L78.7862 71.0356C78.6095 71.9719 78.8746 72.9973 79.5816 73.7106L86.4306 80.6658C87.5795 81.825 89.4353 81.825 90.5842 80.6658C91.7773 79.5066 91.7773 77.5895 90.6284 76.4303ZM76.135 66.0421C75.6048 66.5772 75.0303 67.023 74.4559 67.4688C73.8815 67.8701 73.307 68.1822 72.7326 68.4497C69.5511 69.9656 65.7952 69.9656 62.6138 68.4497C61.3765 67.8701 60.2277 67.0676 59.2114 66.0421C56.295 63.0996 55.1903 59.0424 55.8973 55.2527C56.0741 54.2273 56.3834 53.2019 56.8694 52.2656C57.4439 51.0618 58.2392 49.9026 59.2114 48.9218C59.8742 48.253 60.5811 47.6734 61.3323 47.2276C63.2766 45.9792 65.4859 45.3996 67.6953 45.3996C70.7884 45.3996 73.8373 46.5588 76.1792 48.9218C80.8189 53.6477 80.8189 61.3162 76.135 66.0421Z" fill="#D6DCE8" stroke="#AAB2C5" stroke-width="0.827273" stroke-miterlimit="10"/>
</svg>
