<svg width="111" height="93" viewBox="0 0 111 93" fill="none" xmlns="http://www.w3.org/2000/svg">
<path d="M61.6865 91.9998C86.2556 91.9998 106.174 72.242 106.174 47.7841C106.174 23.3262 86.1679 3.56836 61.6865 3.56836C37.1173 3.56836 17.1987 23.3262 17.1987 47.7841C17.1987 72.242 37.1173 91.9998 61.6865 91.9998Z" fill="#F1F3F9" stroke="#D6DCE8" stroke-width="1.456" stroke-miterlimit="10"/>
<path d="M103.279 18.8003C105.265 18.8003 106.876 17.2026 106.876 15.2317C106.876 13.2608 105.265 11.6631 103.279 11.6631C101.292 11.6631 99.6809 13.2608 99.6809 15.2317C99.6809 17.2026 101.292 18.8003 103.279 18.8003Z" fill="#F1F3F9"/>
<path d="M108.543 4.87417C109.9 4.87417 111 3.78305 111 2.43709C111 1.09112 109.9 0 108.543 0C107.186 0 106.086 1.09112 106.086 2.43709C106.086 3.78305 107.186 4.87417 108.543 4.87417Z" fill="#F1F3F9"/>
<path d="M19.5678 18.7135C20.9247 18.7135 22.0247 17.6224 22.0247 16.2764C22.0247 14.9305 20.9247 13.8394 19.5678 13.8394C18.2108 13.8394 17.1108 14.9305 17.1108 16.2764C17.1108 17.6224 18.2108 18.7135 19.5678 18.7135Z" fill="#F1F3F9"/>
<path d="M4.56284 65.7141C7.08283 65.7141 9.12569 63.6878 9.12569 61.1881C9.12569 58.6885 7.08283 56.6621 4.56284 56.6621C2.04286 56.6621 0 58.6885 0 61.1881C0 63.6878 2.04286 65.7141 4.56284 65.7141Z" fill="#F1F3F9"/>
<path d="M91.9588 25.6763L92.6608 81.7292C92.6608 83.6441 91.0813 85.1238 89.1509 85.1238H34.0458C32.1153 85.1238 30.5359 83.5571 30.5359 81.7292V9.66112C30.5359 7.74626 32.1153 6.2666 34.0458 6.2666H73.9707L91.9588 25.6763Z" fill="white" stroke="#D6DCE8" stroke-width="1.456" stroke-miterlimit="10"/>
<path d="M57.3868 73.8958H46.5939C46.1552 73.8958 45.8042 73.4606 45.8042 72.9384C45.8042 72.4162 46.1552 71.981 46.5939 71.981H57.3868C57.8255 71.981 58.1765 72.4162 58.1765 72.9384C58.1765 73.5477 57.8255 73.8958 57.3868 73.8958Z" fill="#D6DCE8"/>
<path d="M51.2444 73.8958H39.4863C39.0475 73.8958 38.6965 73.4606 38.6965 72.9384C38.6965 72.4162 39.0475 71.981 39.4863 71.981H51.2444C51.6831 71.981 52.0341 72.4162 52.0341 72.9384C52.0341 73.5477 51.6831 73.8958 51.2444 73.8958Z" fill="#D6DCE8"/>
<path d="M66.2491 18.0169H39.8372C39.223 18.0169 38.6965 17.4947 38.6965 16.8854C38.6965 16.2761 39.223 15.7539 39.8372 15.7539H66.2491C66.8633 15.7539 67.3898 16.2761 67.3898 16.8854C67.3898 17.4947 66.8633 18.0169 66.2491 18.0169Z" fill="#D6DCE8"/>
<path d="M50.0159 24.2835H39.8372C39.223 24.2835 38.6965 23.7613 38.6965 23.152C38.6965 22.5427 39.223 22.0205 39.8372 22.0205H49.9282C50.5424 22.0205 51.0689 22.5427 51.0689 23.152C51.0689 23.7613 50.5424 24.2835 50.0159 24.2835Z" fill="#D6DCE8"/>
<path d="M73.9707 6.2666V21.7595C73.9707 23.9355 75.9011 25.6763 78.0948 25.6763H91.9588" fill="#D6DCE8"/>
<path d="M61.0317 58.834H53.4066H50.0535H39.9125C39.5036 58.834 39.0947 59.2407 39.0947 59.8102C39.0947 60.2983 39.4219 60.7865 39.9125 60.7865H50.0535H53.4066H61.0317C61.4406 60.7865 61.8496 60.3797 61.8496 59.8102C61.7678 59.2407 61.4406 58.834 61.0317 58.834Z" fill="#D6DCE8"/>
<path d="M60.0731 51.7563H48.7872H44.9434H39.9125C39.5036 51.7563 39.0947 52.1631 39.0947 52.7326C39.0947 53.2207 39.4219 53.7088 39.9125 53.7088H44.9434H48.7872H60.0731C60.482 53.7088 60.8909 53.3021 60.8909 52.7326C60.8092 52.1631 60.482 51.7563 60.0731 51.7563Z" fill="#D6DCE8"/>
<path d="M65.5795 44.5972H62.6353H59.6912H39.9125C39.5036 44.5972 39.0947 45.0039 39.0947 45.5734C39.0947 46.0615 39.4219 46.5496 39.9125 46.5496H59.6912H62.9625H65.4977C65.9066 46.5496 66.3155 46.1429 66.3155 45.5734C66.3973 45.0853 65.9884 44.5972 65.5795 44.5972Z" fill="#D6DCE8"/>
<path d="M84.2408 60.0571H78.8822H72.8797H62.6173C61.8853 60.0571 61.1533 60.7824 61.1533 61.7979C61.1533 62.6683 61.7389 63.5387 62.6173 63.5387H72.8797H78.8822H84.2408C84.9728 63.5387 85.7048 62.8134 85.7048 61.7979C85.5584 60.7824 84.9728 60.0571 84.2408 60.0571Z" fill="#D6DCE8"/>
<path d="M84.2381 51.353H71.0129H64.1196H61.743C61.0097 51.353 60.2764 52.0784 60.2764 53.0938C60.2764 53.9642 60.863 54.8346 61.743 54.8346H64.1196H71.0129H84.2381C84.9714 54.8346 85.7047 54.1093 85.7047 53.0938C85.558 52.0784 84.9714 51.353 84.2381 51.353Z" fill="#D6DCE8"/>
<path d="M84.371 42.6494H79.1112H73.8514H66.1217C65.3912 42.6494 64.6606 43.3747 64.6606 44.3902C64.6606 45.2606 65.2451 46.131 66.1217 46.131H73.8514H79.6956H84.2249C84.9555 46.131 85.686 45.4056 85.686 44.3902C85.8321 43.5198 85.1016 42.6494 84.371 42.6494Z" fill="#D6DCE8"/>
<path d="M84.3203 37.5195H74.7517H72.3801H39.9125C39.5036 37.5195 39.0947 37.9263 39.0947 38.4958C39.0947 38.9839 39.4219 39.472 39.9125 39.472H72.3801H74.7517H84.2385C84.8109 39.472 85.1381 39.0652 85.1381 38.4958C85.1381 38.0076 84.8109 37.5195 84.3203 37.5195Z" fill="#D6DCE8"/>
<path d="M109.118 81.125L99.9575 71.8818C99.0179 70.9338 97.6673 70.5783 96.4341 70.8153L94.2026 68.5637C100.545 60.6241 100.016 48.9515 92.7345 41.6044C86.6272 35.4422 77.5251 34.0794 70.1259 37.5753C68.0706 38.5233 66.1327 39.8861 64.371 41.6044C62.1982 43.7374 60.6714 46.2852 59.7319 49.0108C59.2621 50.3143 58.9097 51.6178 58.7335 52.9806C57.8527 59.0835 59.7319 65.5419 64.371 70.2228C64.4885 70.3413 64.5472 70.4005 64.6646 70.519C68.5404 74.3111 73.5319 76.1479 78.5821 76.1479C83.0451 76.1479 87.5081 74.6666 91.1489 71.7041L93.3804 73.9556C93.1455 75.1999 93.4979 76.5627 94.4375 77.5107L103.54 86.7539C105.066 88.2944 107.533 88.2944 109.06 86.7539C110.645 85.2134 110.645 82.6656 109.118 81.125ZM89.857 67.3195C89.1523 68.0305 88.3889 68.623 87.6255 69.2155C86.8621 69.7488 86.0987 70.1635 85.3353 70.519C81.1072 72.5336 76.1157 72.5336 71.8876 70.519C70.2434 69.7488 68.7166 68.6822 67.3659 67.3195C63.4902 63.4089 62.0221 58.017 62.9616 52.9806C63.1965 51.6178 63.6076 50.2551 64.2536 49.0108C65.017 47.411 66.074 45.8705 67.3659 44.5669C68.2468 43.6782 69.1863 42.9079 70.1846 42.3154C72.7685 40.6563 75.7047 39.8861 78.6408 39.8861C82.7515 39.8861 86.8034 41.4266 89.9158 44.5669C96.0817 50.8476 96.0817 61.0388 89.857 67.3195Z" fill="#D6DCE8" stroke="#AAB2C5" stroke-width="1.456" stroke-miterlimit="10"/>
</svg>
