<svg width="111" height="93" viewBox="0 0 111 93" fill="none" xmlns="http://www.w3.org/2000/svg">
<path d="M61.6865 92C86.2556 92 106.174 72.2422 106.174 47.7843C106.174 23.3264 86.1679 3.5686 61.6865 3.5686C37.1173 3.5686 17.1987 23.3264 17.1987 47.7843C17.1987 72.2422 37.1173 92 61.6865 92Z" fill="#F1F3F9" fill-opacity="0.1" stroke="#5E677D" stroke-width="1.456" stroke-miterlimit="10"/>
<path d="M103.279 18.8004C105.265 18.8004 106.876 17.2027 106.876 15.2318C106.876 13.2609 105.265 11.6632 103.279 11.6632C101.292 11.6632 99.6809 13.2609 99.6809 15.2318C99.6809 17.2027 101.292 18.8004 103.279 18.8004Z" fill="#5E677D"/>
<path d="M108.543 4.87417C109.9 4.87417 111 3.78305 111 2.43709C111 1.09112 109.9 0 108.543 0C107.186 0 106.086 1.09112 106.086 2.43709C106.086 3.78305 107.186 4.87417 108.543 4.87417Z" fill="#5E677D"/>
<path d="M19.5678 18.7133C20.9247 18.7133 22.0247 17.6222 22.0247 16.2762C22.0247 14.9302 20.9247 13.8391 19.5678 13.8391C18.2108 13.8391 17.1108 14.9302 17.1108 16.2762C17.1108 17.6222 18.2108 18.7133 19.5678 18.7133Z" fill="#5E677D"/>
<path d="M4.56284 65.7144C7.08283 65.7144 9.12569 63.688 9.12569 61.1884C9.12569 58.6887 7.08283 56.6624 4.56284 56.6624C2.04286 56.6624 0 58.6887 0 61.1884C0 63.688 2.04286 65.7144 4.56284 65.7144Z" fill="#5E677D"/>
<path d="M91.9588 25.6764L92.6608 81.7294C92.6608 83.6442 91.0813 85.1239 89.1509 85.1239H34.0458C32.1153 85.1239 30.5359 83.5572 30.5359 81.7294V9.66124C30.5359 7.74638 32.1153 6.26672 34.0458 6.26672H73.9707L91.9588 25.6764Z" fill="#535C72" stroke="#969EAF" stroke-width="1.456" stroke-miterlimit="10"/>
<path d="M57.3868 73.8958H46.5939C46.1552 73.8958 45.8042 73.4606 45.8042 72.9384C45.8042 72.4162 46.1552 71.981 46.5939 71.981H57.3868C57.8255 71.981 58.1765 72.4162 58.1765 72.9384C58.1765 73.5477 57.8255 73.8958 57.3868 73.8958Z" fill="#A1A9B9"/>
<path d="M51.2444 73.8958H39.4863C39.0475 73.8958 38.6965 73.4606 38.6965 72.9384C38.6965 72.4162 39.0475 71.981 39.4863 71.981H51.2444C51.6831 71.981 52.0341 72.4162 52.0341 72.9384C52.0341 73.5477 51.6831 73.8958 51.2444 73.8958Z" fill="#A1A9B9"/>
<path d="M66.2491 18.0169H39.8372C39.223 18.0169 38.6965 17.4947 38.6965 16.8854C38.6965 16.2761 39.223 15.7539 39.8372 15.7539H66.2491C66.8633 15.7539 67.3898 16.2761 67.3898 16.8854C67.3898 17.4947 66.8633 18.0169 66.2491 18.0169Z" fill="#A1A9B9"/>
<path d="M50.0159 24.2838H39.8372C39.223 24.2838 38.6965 23.7615 38.6965 23.1523C38.6965 22.543 39.223 22.0208 39.8372 22.0208H49.9282C50.5424 22.0208 51.0689 22.543 51.0689 23.1523C51.0689 23.7615 50.5424 24.2838 50.0159 24.2838Z" fill="#A1A9B9"/>
<path d="M73.9707 6.26672V21.7596C73.9707 23.9356 75.9011 25.6764 78.0948 25.6764H91.9588" fill="#969EAF"/>
<path d="M61.0317 58.834H53.4066H50.0535H39.9125C39.5036 58.834 39.0947 59.2407 39.0947 59.8102C39.0947 60.2983 39.4219 60.7865 39.9125 60.7865H50.0535H53.4066H61.0317C61.4406 60.7865 61.8496 60.3797 61.8496 59.8102C61.7678 59.2407 61.4406 58.834 61.0317 58.834Z" fill="#A1A9B9"/>
<path d="M60.0731 51.7561H48.7872H44.9434H39.9125C39.5036 51.7561 39.0947 52.1629 39.0947 52.7323C39.0947 53.2205 39.4219 53.7086 39.9125 53.7086H44.9434H48.7872H60.0731C60.482 53.7086 60.8909 53.3018 60.8909 52.7323C60.8092 52.1629 60.482 51.7561 60.0731 51.7561Z" fill="#A1A9B9"/>
<path d="M65.5795 44.597H62.6353H59.6912H39.9125C39.5036 44.597 39.0947 45.0038 39.0947 45.5733C39.0947 46.0614 39.4219 46.5495 39.9125 46.5495H59.6912H62.9625H65.4977C65.9066 46.5495 66.3155 46.1428 66.3155 45.5733C66.3973 45.0852 65.9884 44.597 65.5795 44.597Z" fill="#A1A9B9"/>
<path d="M84.2408 60.057H78.8822H72.8797H62.6173C61.8853 60.057 61.1533 60.7823 61.1533 61.7978C61.1533 62.6682 61.7389 63.5386 62.6173 63.5386H72.8797H78.8822H84.2408C84.9728 63.5386 85.7048 62.8132 85.7048 61.7978C85.5584 60.7823 84.9728 60.057 84.2408 60.057Z" fill="#A1A9B9"/>
<path d="M84.2381 51.3529H71.0129H64.1196H61.743C61.0097 51.3529 60.2764 52.0782 60.2764 53.0937C60.2764 53.9641 60.863 54.8345 61.743 54.8345H64.1196H71.0129H84.2381C84.9714 54.8345 85.7047 54.1091 85.7047 53.0937C85.558 52.0782 84.9714 51.3529 84.2381 51.3529Z" fill="#A1A9B9"/>
<path d="M84.371 42.6492H79.1112H73.8514H66.1217C65.3912 42.6492 64.6606 43.3745 64.6606 44.3899C64.6606 45.2603 65.2451 46.1307 66.1217 46.1307H73.8514H79.6956H84.2249C84.9555 46.1307 85.686 45.4054 85.686 44.3899C85.8321 43.5196 85.1016 42.6492 84.371 42.6492Z" fill="#A1A9B9"/>
<path d="M84.3203 37.5195H74.7517H72.3801H39.9125C39.5036 37.5195 39.0947 37.9263 39.0947 38.4958C39.0947 38.9839 39.4219 39.472 39.9125 39.472H72.3801H74.7517H84.2385C84.8109 39.472 85.1381 39.0652 85.1381 38.4958C85.1381 38.0076 84.8109 37.5195 84.3203 37.5195Z" fill="#A1A9B9"/>
<path d="M109.118 81.1249L99.9575 71.8817C99.0179 70.9337 97.6673 70.5782 96.4341 70.8152L94.2026 68.5636C100.545 60.6239 100.016 48.9514 92.7345 41.6042C86.6272 35.4421 77.5251 34.0793 70.1259 37.5752C68.0706 38.5232 66.1327 39.886 64.371 41.6042C62.1982 43.7373 60.6714 46.2851 59.7319 49.0107C59.2621 50.3142 58.9097 51.6177 58.7335 52.9805C57.8527 59.0834 59.7319 65.5418 64.371 70.2227C64.4885 70.3412 64.5472 70.4004 64.6646 70.5189C68.5404 74.311 73.5319 76.1478 78.5821 76.1478C83.0451 76.1478 87.5081 74.6665 91.1489 71.7039L93.3804 73.9555C93.1455 75.1998 93.4979 76.5626 94.4375 77.5106L103.54 86.7538C105.066 88.2943 107.533 88.2943 109.06 86.7538C110.645 85.2133 110.645 82.6654 109.118 81.1249ZM89.857 67.3193C89.1523 68.0304 88.3889 68.6229 87.6255 69.2154C86.8621 69.7486 86.0987 70.1634 85.3353 70.5189C81.1072 72.5335 76.1157 72.5335 71.8876 70.5189C70.2434 69.7486 68.7166 68.6821 67.3659 67.3193C63.4902 63.4087 62.0221 58.0169 62.9616 52.9805C63.1965 51.6177 63.6076 50.2549 64.2536 49.0107C65.017 47.4109 66.074 45.8703 67.3659 44.5668C68.2468 43.678 69.1863 42.9078 70.1846 42.3153C72.7685 40.6562 75.7047 39.886 78.6408 39.886C82.7515 39.886 86.8034 41.4265 89.9158 44.5668C96.0817 50.8475 96.0817 61.0387 89.857 67.3193Z" fill="#818A9D" stroke="#919AAD" stroke-width="1.456" stroke-miterlimit="10"/>
</svg>
