<svg width="176" height="176" viewBox="0 0 176 176" fill="none" xmlns="http://www.w3.org/2000/svg">
<path d="M96.6928 148.919C129.23 148.919 155.609 122.753 155.609 90.3628C155.609 57.9725 129.114 31.8066 96.6928 31.8066C64.1551 31.8066 37.7764 57.9725 37.7764 90.3628C37.7764 122.753 64.1551 148.919 96.6928 148.919Z" fill="#F1F3F9" stroke="#D6DCE8" stroke-width="1.456" stroke-miterlimit="10"/>
<path d="M151.775 51.9784C154.406 51.9784 156.539 49.8625 156.539 47.2524C156.539 44.6423 154.406 42.5264 151.775 42.5264C149.143 42.5264 147.01 44.6423 147.01 47.2524C147.01 49.8625 149.143 51.9784 151.775 51.9784Z" fill="#F1F3F9"/>
<path d="M158.746 33.5361C160.543 33.5361 162 32.0911 162 30.3086C162 28.5261 160.543 27.0811 158.746 27.0811C156.949 27.0811 155.493 28.5261 155.493 30.3086C155.493 32.0911 156.949 33.5361 158.746 33.5361Z" fill="#F1F3F9"/>
<path d="M40.9137 51.8637C42.7107 51.8637 44.1674 50.4187 44.1674 48.6362C44.1674 46.8537 42.7107 45.4087 40.9137 45.4087C39.1167 45.4087 37.6599 46.8537 37.6599 48.6362C37.6599 50.4187 39.1167 51.8637 40.9137 51.8637Z" fill="#F1F3F9"/>
<path d="M21.0426 114.108C24.3799 114.108 27.0853 111.424 27.0853 108.114C27.0853 104.804 24.3799 102.12 21.0426 102.12C17.7053 102.12 14.9999 104.804 14.9999 108.114C14.9999 111.424 17.7053 114.108 21.0426 114.108Z" fill="#F1F3F9"/>
<path d="M136.784 61.0847L137.713 135.317C137.713 137.853 135.622 139.813 133.065 139.813H60.0877C57.5312 139.813 55.4395 137.738 55.4395 135.317V39.8753C55.4395 37.3394 57.5312 35.3799 60.0877 35.3799H112.961L136.784 61.0847Z" fill="white" stroke="#D6DCE8" stroke-width="1.456" stroke-miterlimit="10"/>
<path d="M90.9987 124.943H76.7054C76.1244 124.943 75.6595 124.367 75.6595 123.675C75.6595 122.984 76.1244 122.407 76.7054 122.407H90.9987C91.5798 122.407 92.0446 122.984 92.0446 123.675C92.0446 124.482 91.5798 124.943 90.9987 124.943Z" fill="#D6DCE8"/>
<path d="M82.8642 124.943H67.2926C66.7115 124.943 66.2467 124.367 66.2467 123.675C66.2467 122.984 66.7115 122.407 67.2926 122.407H82.8642C83.4452 122.407 83.91 122.984 83.91 123.675C83.91 124.482 83.4452 124.943 82.8642 124.943Z" fill="#D6DCE8"/>
<path d="M102.735 50.9413H67.7574C66.9439 50.9413 66.2467 50.2497 66.2467 49.4428C66.2467 48.6359 66.9439 47.9443 67.7574 47.9443H102.735C103.549 47.9443 104.246 48.6359 104.246 49.4428C104.246 50.2497 103.549 50.9413 102.735 50.9413Z" fill="#D6DCE8"/>
<path d="M81.2373 59.2401H67.7574C66.9439 59.2401 66.2467 58.5485 66.2467 57.7417C66.2467 56.9348 66.9439 56.2432 67.7574 56.2432H81.1211C81.9345 56.2432 82.6318 56.9348 82.6318 57.7417C82.6318 58.5485 81.9345 59.2401 81.2373 59.2401Z" fill="#D6DCE8"/>
<path d="M112.961 35.3799V55.8976C112.961 58.7793 115.518 61.0847 118.423 61.0847H136.784" fill="#D6DCE8"/>
<path d="M95.8259 104.997H85.7277H81.2871H67.8571C67.3156 104.997 66.774 105.535 66.774 106.289C66.774 106.936 67.2073 107.582 67.8571 107.582H81.2871H85.7277H95.8259C96.3674 107.582 96.9089 107.044 96.9089 106.289C96.8006 105.535 96.3674 104.997 95.8259 104.997Z" fill="#D6DCE8"/>
<path d="M94.5563 95.6235H79.6101H74.5196H67.8571C67.3156 95.6235 66.774 96.1622 66.774 96.9164C66.774 97.5628 67.2073 98.2092 67.8571 98.2092H74.5196H79.6101H94.5563C95.0979 98.2092 95.6394 97.6706 95.6394 96.9164C95.5311 96.1622 95.0979 95.6235 94.5563 95.6235Z" fill="#D6DCE8"/>
<path d="M101.849 86.1421H97.9496H94.0505H67.8571C67.3156 86.1421 66.774 86.6808 66.774 87.4349C66.774 88.0814 67.2073 88.7278 67.8571 88.7278H94.0505H98.3828H101.74C102.282 88.7278 102.823 88.1891 102.823 87.4349C102.932 86.7885 102.39 86.1421 101.849 86.1421Z" fill="#D6DCE8"/>
<path d="M126.562 106.616H119.466H111.516H97.9258C96.9564 106.616 95.9869 107.577 95.9869 108.922C95.9869 110.074 96.7625 111.227 97.9258 111.227H111.516H119.466H126.562C127.532 111.227 128.501 110.266 128.501 108.922C128.307 107.577 127.532 106.616 126.562 106.616Z" fill="#D6DCE8"/>
<path d="M126.559 95.0894H109.044H99.9153H96.7679C95.7967 95.0894 94.8256 96.0499 94.8256 97.3947C94.8256 98.5474 95.6025 99.7001 96.7679 99.7001H99.9153H109.044H126.559C127.53 99.7001 128.501 98.7395 128.501 97.3947C128.307 96.0499 127.53 95.0894 126.559 95.0894Z" fill="#D6DCE8"/>
<path d="M126.735 83.5625H119.769H112.803H102.567C101.599 83.5625 100.632 84.5231 100.632 85.8679C100.632 87.0205 101.406 88.1732 102.567 88.1732H112.803H120.543H126.541C127.509 88.1732 128.476 87.2127 128.476 85.8679C128.67 84.7152 127.702 83.5625 126.735 83.5625Z" fill="#D6DCE8"/>
<path d="M126.668 76.769H113.996H110.855H67.8571C67.3156 76.769 66.774 77.3077 66.774 78.0619C66.774 78.7083 67.2073 79.3548 67.8571 79.3548H110.855H113.996H126.559C127.317 79.3548 127.751 78.8161 127.751 78.0619C127.751 77.4155 127.317 76.769 126.668 76.769Z" fill="#D6DCE8"/>
<path d="M159.508 134.517L147.376 122.276C146.132 121.02 144.343 120.55 142.71 120.864L139.755 117.882C148.154 107.367 147.454 91.9087 137.811 82.1786C129.723 74.0179 117.668 72.2132 107.87 76.8428C105.148 78.0983 102.581 79.9031 100.248 82.1786C97.3707 85.0035 95.3487 88.3776 94.1044 91.9872C93.4822 93.7135 93.0156 95.4398 92.7823 97.2446C91.6157 105.327 94.1044 113.88 100.248 120.079C100.404 120.236 100.481 120.314 100.637 120.471C105.77 125.493 112.38 127.926 119.068 127.926C124.979 127.926 130.889 125.964 135.711 122.041L138.666 125.022C138.355 126.67 138.822 128.475 140.066 129.73L152.12 141.972C154.142 144.012 157.409 144.012 159.431 141.972C161.53 139.931 161.53 136.557 159.508 134.517ZM134 116.234C133.067 117.176 132.056 117.96 131.045 118.745C130.034 119.451 129.023 120 128.012 120.471C122.412 123.139 115.802 123.139 110.203 120.471C108.025 119.451 106.003 118.039 104.214 116.234C99.0816 111.055 97.1374 103.914 98.3817 97.2446C98.6928 95.4398 99.2371 93.635 100.093 91.9872C101.104 89.8685 102.503 87.8284 104.214 86.1021C105.381 84.925 106.625 83.9049 107.947 83.1203C111.369 80.9231 115.258 79.9031 119.146 79.9031C124.59 79.9031 129.956 81.9432 134.078 86.1021C142.244 94.4197 142.244 107.916 134 116.234Z" fill="#D6DCE8" stroke="#AAB2C5" stroke-width="1.456" stroke-miterlimit="10"/>
</svg>
