<svg width="44" height="44" viewBox="0 0 44 44" fill="none" xmlns="http://www.w3.org/2000/svg">
<g opacity="0.1">
<path fill-rule="evenodd" clip-rule="evenodd" d="M18.474 6.20508V11.4918C15.7122 11.4918 13.141 12.3809 10.7616 14.1589C8.38109 15.9358 7.19196 18.0591 7.19196 20.5265C7.19196 21.9954 7.77863 22.7299 8.95535 22.7299C9.21935 22.7299 9.74848 22.6272 10.5416 22.4219C11.3641 22.2448 12.0252 22.1568 12.525 22.1568C14.1406 22.1568 15.6614 22.8111 17.0863 24.1187C18.5112 25.4263 19.2231 27.2258 19.2231 29.5172C19.2231 31.7499 18.4887 33.6667 17.0198 35.2676C15.5508 36.8697 13.5381 37.6707 10.9816 37.6707C7.92643 37.6707 5.45904 36.5166 3.57832 34.2105C1.69761 31.9045 0.757812 28.6936 0.757812 24.5813C0.757812 18.9109 2.48397 14.4669 5.93627 11.2493C9.38858 8.0339 13.5675 6.35174 18.474 6.20508ZM42.6684 6.20508V11.4918C40.0543 11.4918 37.5204 12.3662 35.0665 14.1138C32.6138 15.8625 31.3863 17.9993 31.3863 20.5265C31.3863 21.9954 31.9741 22.7299 33.1497 22.7299C33.4137 22.7299 33.9428 22.6272 34.736 22.4219C35.5595 22.2448 36.2195 22.1568 36.7193 22.1568C38.4229 22.1568 39.9652 22.8337 41.3461 24.1842C42.727 25.5357 43.4175 27.3138 43.4175 29.5172C43.4175 31.7499 42.6842 33.6667 41.2141 35.2676C39.7452 36.8697 37.7325 37.6707 35.1771 37.6707C32.1208 37.6707 29.6534 36.5166 27.7727 34.2105C25.8931 31.9045 24.9522 28.6936 24.9522 24.5813C24.9522 18.9109 26.6783 14.4669 30.1306 11.2493C33.5829 8.0339 37.7618 6.35174 42.6684 6.20508Z" fill="#52618F"/>
</g>
</svg>
