<svg width="173" height="20" viewBox="0 0 173 20" fill="none" xmlns="http://www.w3.org/2000/svg">
<path fill-rule="evenodd" clip-rule="evenodd" d="M172.804 19.4656H155.72V15.7251L166.122 4.65659H156.099V0.534351H172.5V4.27492L162.098 15.3434H172.804V19.4656ZM148.699 16.4122H148.167C147.407 18.1679 145.661 19.7709 142.206 19.7709C138.03 19.7709 134.879 16.7558 134.879 11.8321V0.534351H139.662V11.374C139.662 14.0076 141.181 15.5725 143.914 15.5725C146.989 15.5725 148.623 13.6641 148.623 10.3053V0.534351H153.406V19.4656H148.699V16.4122ZM130.438 20C128.388 20 126.831 18.5114 126.831 16.374C126.831 14.2366 128.388 12.7481 130.438 12.7481C132.487 12.7481 134.044 14.2366 134.044 16.374C134.044 18.5114 132.488 20 130.438 20ZM116.737 7.74811L117.383 7.82445C123.419 8.54964 125.66 10.1145 125.66 13.5878C125.66 17.29 122.204 20 117.193 20C111.992 20 109.338 17.3282 107.592 14.6565L111.157 12.2519C112.334 14.7328 114.877 16.0305 117.307 16.0305C119.243 16.0305 121.028 15.1908 121.028 13.7022C121.028 12.2901 119.091 12.0229 117.041 11.7939L116.396 11.7175C111.119 11.1068 108.727 9.38931 108.727 5.87787C108.727 2.36644 111.916 0 116.282 0C120.155 0 122.889 1.71754 125.432 4.38931L121.976 7.13741C120.534 5.41986 118.636 3.89315 116.13 3.89315C114.346 3.89315 113.359 4.65648 113.359 5.80153C113.359 7.17555 114.763 7.51907 116.737 7.74811ZM97.1389 19.4656L94.1777 4.65659H93.7222L90.761 19.4656H83.9272L80.2066 0.534351H84.99L87.2303 15.3434H87.6856L90.647 0.534351H97.2531L100.214 15.3434H100.67L102.91 0.534351H107.694L103.973 19.4656H97.1389ZM70.5614 15.8779C73.2187 15.8779 74.6233 14.3893 75.2691 13.0534L79.1795 15.3435C77.8885 17.3282 75.6866 20 70.6372 20C65.0181 20 60.9556 15.7252 60.9556 9.84732C60.9556 4.12213 64.8661 0 70.4094 0C75.8765 0 79.5593 3.85495 79.5593 9.54199V11.4122H65.8532C66.043 13.9313 67.8279 15.8779 70.5614 15.8779ZM74.6996 8.05332C74.3578 5.64873 72.8389 4.12202 70.3716 4.12202C67.6759 4.12202 66.2712 5.72508 65.8916 8.05332H74.6996ZM54.3868 8.62581C54.3868 5.99226 52.8681 4.42734 50.1346 4.42734C47.0592 4.42734 45.4269 6.33578 45.4269 9.69452V19.4656H40.6434V0.534351H45.3512V3.58778H45.8823C46.6416 1.83208 48.3882 0.228977 51.8432 0.228977C56.0192 0.228977 59.1708 3.24426 59.1708 8.16792V19.4656H54.3868V8.62581Z" fill="white"/>
<path fill-rule="evenodd" clip-rule="evenodd" d="M38.353 19.4657H21.2684V15.7251L31.6709 4.6566H21.648V0.534363H38.0491V4.27494L27.6466 15.3434H38.353V19.4657ZM14.0152 16.4122H13.4836C12.7241 18.1679 10.9778 19.771 7.52322 19.771C3.34699 19.771 0.195801 16.7558 0.195801 11.8321V0.534363H4.97948V11.374C4.97948 14.0077 6.49812 15.5725 9.23165 15.5725C12.3069 15.5725 13.9394 13.6641 13.9394 10.3053V0.534363H18.7232V19.4657H14.0152V16.4122Z" fill="#A2BCDE"/>
</svg>
