<svg xmlns="http://www.w3.org/2000/svg" width="40" height="32" viewBox="0 0 40 32" fill="none">
<g clip-path="url(#clip0_208_8315)">
<path fill-rule="evenodd" clip-rule="evenodd" d="M39.2375 3.27967C39.0902 3.24112 38.95 3.18843 38.7965 3.17611C38.7027 3.16233 38.5988 3.12476 38.5017 3.13366C38.4823 3.13915 38.4658 3.15184 38.4613 3.17208C38.4528 3.26771 38.6317 3.33553 38.676 3.39261C38.4486 3.38359 38.3173 3.12598 38.1008 3.07024C37.7108 2.93875 37.3061 2.86446 36.9013 2.79201C36.8153 2.78494 36.7235 2.7342 36.6364 2.727C36.5351 2.68638 36.4177 2.67614 36.311 2.66016C36.0428 2.6504 35.7896 2.55526 35.5298 2.49403C35.2816 2.43267 35.0287 2.42365 34.7793 2.36413C34.466 2.27533 34.1458 2.24117 33.8207 2.24227C33.6837 2.24508 33.5503 2.17153 33.4126 2.18824C33.3497 2.19556 33.3104 2.26203 33.3646 2.30972C33.5102 2.44975 33.7504 2.40877 33.8887 2.55465C34.0319 2.73603 33.2999 2.55697 33.2322 2.51769C33.0287 2.41792 32.8011 2.40682 32.5787 2.40962C32.0281 2.27521 31.4621 2.48122 30.9154 2.344C30.8426 2.32082 30.7901 2.2663 30.731 2.218C30.623 2.12457 30.4868 2.06712 30.3478 2.0398C30.0825 2.01211 29.8264 1.90074 29.5568 1.91648C29.3604 1.93868 29.1643 1.97344 28.9708 2.0143C28.959 2.01662 28.9121 2.02345 28.8636 2.03321C28.849 2.02955 28.833 2.02955 28.8183 2.02979C28.7536 2.0276 28.6816 2.0215 28.6158 2.01186C28.4042 1.98308 28.2262 1.85476 28.0357 1.76499C27.9237 1.70754 27.8046 1.69949 27.6813 1.71449C27.4248 1.67546 27.1781 1.56958 26.918 1.53372C26.8036 1.51128 26.8247 1.59349 26.8134 1.62057C26.7698 1.71498 26.6537 1.72888 26.564 1.69668C26.4272 1.64106 26.3333 1.49347 26.174 1.48103C26.0091 1.45761 25.8454 1.48615 25.6801 1.4542C25.5272 1.43578 25.3679 1.41309 25.2185 1.46005C25.1673 1.48859 25.0245 1.49384 25.0367 1.57032C25.0755 1.63521 25.1718 1.61923 25.2341 1.65021C25.2878 1.68168 25.4856 1.78719 25.3711 1.85208C25.2761 1.90697 25.1638 1.88879 25.0576 1.89306C24.9622 1.90233 24.8674 1.93038 24.7722 1.89672C24.7099 1.87733 24.6509 1.83427 24.5837 1.82439C24.457 1.79975 24.332 1.8422 24.204 1.83415C24.0069 1.82671 23.8427 1.63411 23.6407 1.66753C23.5737 1.68424 23.5766 1.76486 23.6034 1.81487C23.622 1.86854 23.6678 1.91733 23.6667 1.97576C23.6524 2.04626 23.5687 2.05748 23.51 2.03553C23.3714 1.97673 23.2386 1.8883 23.0838 1.87257C22.9757 1.81622 22.6903 1.72498 22.71 1.68753C22.7111 1.6679 22.7277 1.65533 22.7391 1.63679C22.7834 1.47469 22.5621 1.36698 22.4298 1.34039C22.2689 1.30783 22.126 1.20622 21.9595 1.1928C21.7671 1.17122 21.574 1.19061 21.3817 1.15572C21.2223 1.14328 21.0507 1.08047 20.8942 1.12218C20.8453 1.1434 20.8509 1.19817 20.8954 1.22061C21.279 1.41895 20.6803 1.31868 20.5555 1.32832C20.3953 1.32539 20.233 1.3521 20.0752 1.31734C19.9657 1.27916 19.886 1.17756 19.7638 1.17378C19.4932 1.16182 19.2223 1.13194 18.9512 1.1184C18.8818 1.1112 18.8046 1.11645 18.7815 1.19488C18.7655 1.23208 18.723 1.26026 18.6845 1.23049C18.489 1.069 18.2223 1.15133 17.9973 1.1878C17.7959 1.20866 17.6018 1.24586 17.4055 1.29685C17.2889 1.29331 17.1943 1.37174 17.0869 1.39675C17.0891 1.3038 17.1796 1.23159 17.2521 1.1828C17.3452 1.13548 17.4609 1.13438 17.5379 1.05449C17.6545 0.942025 17.823 0.903359 17.9557 0.811268C18.0237 0.774066 18.1713 0.742597 18.1323 0.637455C18.0858 0.576834 17.9986 0.607083 17.9318 0.592324C17.8454 0.56671 17.7664 0.510113 17.6837 0.466813C17.6812 0.460226 17.6775 0.453883 17.6732 0.448272C17.5877 0.369233 17.4656 0.349839 17.3562 0.323249C17.1667 0.285437 16.9864 0.180173 16.7894 0.185783C16.6728 0.189687 16.5649 0.237013 16.4593 0.281899C16.4044 0.297756 16.3382 0.325078 16.278 0.305196C16.1917 0.237501 16.1414 0.177977 16.0219 0.159071C15.9465 0.141873 15.8706 0.155778 15.7945 0.146874C15.7483 0.127114 15.7295 0.0688099 15.681 0.049294C15.4791 -0.0407231 15.2504 0.0189224 15.0376 0.0247771C14.9757 0.0320956 14.8972 0.0313638 14.8571 0.087716C14.83 0.132115 14.8247 0.184198 14.7781 0.217619C14.7301 0.255919 14.6718 0.262871 14.6118 0.276166C14.5135 0.297878 14.4448 0.37399 14.3477 0.405093C14.2265 0.457177 14.1085 0.400824 13.9871 0.38143C13.8054 0.370087 13.627 0.412534 13.4447 0.40241C13.3571 0.406679 13.289 0.470106 13.2031 0.484621C12.9726 0.525482 12.7171 0.529263 12.5355 0.700638C12.4546 0.750281 12.2493 0.815416 12.3461 0.943123C12.4013 0.995694 12.4874 0.99484 12.5462 1.04095C12.5772 1.0679 12.5395 1.08376 12.5114 1.08376C12.4482 1.08949 12.3763 1.06656 12.3118 1.07217C12.3045 1.07486 12.2985 1.07742 12.2937 1.07998C12.0494 1.08254 11.8034 1.05449 11.558 1.07254C11.438 1.07486 11.2428 1.03704 11.1796 1.16621C11.1619 1.26245 11.2743 1.29404 11.3423 1.32649C11.3927 1.35003 11.4188 1.40833 11.4557 1.44749C11.5257 1.52336 11.6334 1.53385 11.7287 1.55507C11.8233 1.56836 12.1785 1.70559 11.8872 1.71986C11.677 1.67302 11.4804 1.5397 11.2623 1.51433C11.1411 1.52006 11.0072 1.49481 10.8923 1.5375C10.8222 1.58166 10.8746 1.6363 10.9201 1.67107L10.9025 1.68314C10.8417 1.689 10.7854 1.63277 10.7207 1.64021C10.6351 1.63179 10.5113 1.6685 10.5989 1.76889C10.7806 1.94185 11.0417 1.89001 11.2611 1.96807C11.229 1.98881 11.189 1.97905 11.1525 1.97295C10.9113 1.90318 10.6252 1.94234 10.4349 1.74437C10.4118 1.65484 10.3855 1.60471 10.3273 1.53043C10.2801 1.45554 10.1699 1.36747 10.0796 1.37857C10.0268 1.41663 10.0867 1.48579 10.0954 1.53433C10.1101 1.57129 10.1002 1.60154 10.0641 1.6202C9.99742 1.65423 9.92163 1.72413 9.9373 1.80597C10.0017 1.92514 10.1717 1.93185 10.2696 2.01918C10.2958 2.03931 10.3396 2.06382 10.3379 2.10273C10.3249 2.15482 10.2866 2.20227 10.2951 2.25874C10.3065 2.33058 10.3472 2.39913 10.4103 2.43646C10.5536 2.57477 10.7717 2.57978 10.9589 2.55392C11.1494 2.49964 11.3593 2.56307 11.5296 2.65869C11.5866 2.74554 11.6244 2.84946 11.7072 2.91911C11.7752 2.98815 11.8698 3.01218 11.9554 3.04877C11.9736 3.07536 11.9096 3.09512 11.8832 3.09183C11.6365 3.07475 11.5208 2.79713 11.3119 2.69053C11.1743 2.60551 11.0094 2.58197 10.8514 2.60929C10.7982 2.61405 10.7279 2.62564 10.7207 2.69053C10.6799 2.80994 10.8056 2.83287 10.8845 2.87142C10.9278 2.90106 10.979 2.94082 10.9657 3.00132C10.9444 3.07768 10.8853 3.08804 10.8679 3.12183C10.8483 3.15793 10.8595 3.19782 10.8414 3.23563C10.8091 3.28833 10.7419 3.30174 10.6936 3.33529C10.6404 3.36578 10.607 3.41969 10.5515 3.4475C10.497 3.47031 10.435 3.47482 10.3735 3.46885C10.2007 3.41323 10.0096 3.44433 9.84269 3.367C9.92382 3.30247 10.0496 3.36017 10.1477 3.34419C10.2305 3.33492 10.287 3.2671 10.3696 3.25003C10.4387 3.23051 10.5001 3.18318 10.5225 3.11256C10.5456 3.04352 10.5986 2.98119 10.5958 2.90398C10.5955 2.82177 10.5145 2.78567 10.4602 2.7392C10.4118 2.67943 10.3443 2.63296 10.2784 2.59271C10.1066 2.49232 10.0747 2.27838 10.0013 2.10773C9.93767 1.97405 9.79556 1.9188 9.69269 1.82463C9.64921 1.76243 9.69099 1.68753 9.68686 1.61752C9.6882 1.53177 9.63536 1.45029 9.55435 1.42151C9.44042 1.38638 9.32407 1.37028 9.2184 1.30807C9.17152 1.2849 9.13302 1.2405 9.08176 1.22183C8.93723 1.16853 8.73829 1.27258 8.72736 1.36296C8.7242 1.48798 8.74679 1.61496 8.70549 1.73937C8.67865 1.82402 8.57274 1.81561 8.51031 1.86488C8.37853 1.96051 8.52392 2.16372 8.65509 2.15835C8.66262 2.17287 8.67136 2.18726 8.67258 2.20288C8.67914 2.25032 8.64586 2.29704 8.63748 2.34449C8.62642 2.41584 8.68072 2.4872 8.75165 2.49671C8.84007 2.50952 8.91391 2.43011 9.00209 2.4478C9.03452 2.45475 9.0582 2.4711 9.08079 2.49793C9.13861 2.61088 9.27184 2.59478 9.36755 2.64942C9.38383 2.66369 9.39804 2.68504 9.40447 2.70785C9.42075 2.77445 9.34569 2.80799 9.30573 2.853C9.13217 3.01864 9.02383 3.23441 8.89229 3.43177C8.72019 3.65693 8.58817 3.91125 8.5046 4.18411C8.41023 4.4372 8.30651 4.69567 8.30943 4.97084C8.33748 5.3886 8.46088 5.801 8.63481 6.18046C8.79173 6.49577 8.93638 6.82119 9.06828 7.14845C9.16569 7.37728 9.26686 7.64306 9.48621 7.77894C9.49168 7.78089 9.49739 7.78247 9.50322 7.78345C9.49241 7.79809 9.48427 7.81663 9.47953 7.8398C9.47577 7.94129 9.59127 7.97178 9.64544 8.03899C9.93791 8.21707 9.5965 8.09961 9.52095 8.20463C9.48014 8.25452 9.51293 8.3177 9.53613 8.36759C9.53941 8.37832 9.54646 8.39308 9.53443 8.40247C9.44953 8.43687 9.3548 8.53762 9.4663 8.60605C9.56929 8.64532 9.67532 8.68472 9.7873 8.66362C9.95844 8.70143 9.93973 8.90915 9.78912 8.96929C9.73933 8.9716 9.70168 8.93208 9.65127 8.92391C9.59018 8.91062 9.53261 8.94355 9.47832 8.9677C9.4284 8.98697 9.37727 9.01466 9.32067 9.00832C9.30184 9.00173 9.27379 8.99307 9.24913 8.98819C9.24755 8.98636 9.24573 8.98453 9.24391 8.9827C9.19423 8.95392 9.12039 8.96575 9.08286 8.91293C9.06403 8.86658 9.05286 8.81084 8.99893 8.79206C8.8912 8.75022 8.80351 8.88854 8.69663 8.86085C8.60857 8.81279 8.48991 8.82048 8.41521 8.89171C8.36335 8.94062 8.32473 9.01612 8.2459 9.02369C8.19283 9.01686 8.14631 8.97331 8.08923 8.9738C8.03044 8.97258 7.97785 9.00917 7.91894 9.00637C7.85761 8.99856 7.82749 8.93952 7.7998 8.88988C7.75559 8.81401 7.69923 8.74095 7.62101 8.69826C7.50502 8.63398 7.36486 8.68899 7.24802 8.63081C7.15207 8.56689 7.06559 8.65264 6.96831 8.64337C6.85742 8.57787 6.71398 8.59714 6.64827 8.71595C6.54102 8.82255 6.38714 8.87927 6.28366 8.98941C6.25427 9.02588 6.2403 9.07626 6.26058 9.12029C6.27248 9.14859 6.29653 9.16725 6.30479 9.19799C6.31062 9.23348 6.29046 9.28093 6.25378 9.29093C6.25281 9.29118 6.25196 9.29142 6.25111 9.29179C6.13269 9.27898 6.08872 9.13322 5.99229 9.07967C5.87229 9.03857 5.78933 9.19543 5.76638 9.29313C5.74913 9.3668 5.79929 9.42779 5.81751 9.49585C5.818 9.58477 5.74379 9.66503 5.75751 9.75797C5.76225 9.81481 5.80099 9.86434 5.84957 9.89105C5.87872 9.90764 5.91613 9.91337 5.93581 9.94289C5.95427 9.96594 5.95901 9.99351 5.98342 10.0139C6.0852 10.0553 6.20471 10.0095 6.30856 10.0606C6.44058 10.1396 6.51831 10.2826 6.6122 10.3997C6.66284 10.4536 6.74082 10.4637 6.8109 10.4693C7.00657 10.5147 7.12207 10.2059 7.3079 10.3344C7.35684 10.3688 7.4228 10.4026 7.48753 10.3943C7.5864 10.3649 7.68623 10.3199 7.78765 10.3685C7.86477 10.3987 7.84473 10.4836 7.85214 10.5557C7.83757 10.5919 7.85627 10.6363 7.85105 10.6773C7.84728 10.7173 7.81461 10.7568 7.82749 10.7983C7.8553 10.8628 7.92611 10.9043 7.99206 10.9201C8.03469 10.93 8.07441 10.915 8.11255 10.9045C8.15092 10.9032 8.18845 10.9262 8.22283 10.9416C8.32011 10.9977 8.21032 11.0335 8.16586 11.0724C8.12821 11.1046 8.11631 11.1529 8.07392 11.1804L8.07538 11.1582C8.18858 10.9731 7.98453 10.9752 7.85724 10.9576C7.68417 10.9181 7.39267 10.8411 7.3113 11.0571C7.31288 11.0971 7.33826 11.1287 7.35308 11.1653C7.3702 11.2056 7.27438 11.167 7.19932 11.1893C7.13154 11.2065 7.10081 11.2927 7.146 11.3474C7.21255 11.4307 7.3294 11.4466 7.38077 11.5475C7.43494 11.6353 7.50199 11.7333 7.60571 11.7676C7.72571 11.8095 7.85761 11.8117 7.97129 11.8702C8.02036 11.9086 7.91773 12.0374 7.9289 12.1392C7.94931 12.2725 8.07234 12.2173 8.13744 12.1539C8.16064 12.1343 8.18955 12.1366 8.21566 12.1517C8.37222 12.2928 8.4989 12.3808 8.63833 12.5524C8.62509 12.6417 8.49343 12.6417 8.42116 12.6236C8.33748 12.618 8.2442 12.5376 8.16149 12.5772C8.05012 12.6599 8.13866 12.8006 8.16817 12.9036C8.21032 12.9714 8.29825 12.9801 8.37015 12.9905C8.37841 13.0202 8.35813 13.0364 8.33493 13.0513C8.26412 13.1004 8.281 13.215 8.34963 13.258C8.40295 13.2993 8.47339 13.2821 8.53436 13.3022C8.65315 13.3367 8.5391 13.5169 8.55234 13.6433C8.56327 13.7618 8.66007 13.8558 8.76671 13.8974C8.77424 13.9016 8.78444 13.9036 8.79561 13.9041C8.80193 13.8938 8.80946 13.885 8.81833 13.8784C8.83533 13.8656 8.85695 13.8611 8.88379 13.8694C8.88355 13.8724 8.88306 13.8753 8.88245 13.8783C8.88136 13.883 8.8799 13.8875 8.87796 13.8918C8.86254 13.9266 8.82282 13.9472 8.82768 13.994C8.81796 14.049 8.86436 14.1062 8.81796 14.153C8.7627 14.2172 8.68035 14.1726 8.61076 14.1744C8.45845 14.1724 8.33432 14.2798 8.18396 14.2708C7.95283 14.2603 7.78097 14.0916 7.59247 13.9868C7.50794 13.9389 7.40859 13.945 7.3249 13.8993C7.21316 13.8398 7.15219 13.7231 7.12608 13.6029C7.16919 13.6114 7.17065 13.5878 7.14041 13.5542C7.13191 13.5461 7.12292 13.5389 7.11357 13.5324C7.09936 13.4645 7.07944 13.3985 7.09596 13.3299C7.11539 13.2823 7.14745 13.2411 7.14709 13.1879C7.1528 13.0425 7.04264 12.9243 7.03377 12.7784C7.00596 12.643 6.91815 12.357 6.75333 12.3666C6.6711 12.403 6.61365 12.498 6.51224 12.4806C6.43366 12.4768 6.38811 12.399 6.32192 12.3681C6.2539 12.333 6.17447 12.3213 6.10658 12.288C6.10038 12.2789 6.09334 12.2704 6.08471 12.2627C6.08119 12.2653 6.07816 12.2678 6.0756 12.2706C6.06006 12.2605 6.04536 12.2488 6.032 12.2347C5.97407 12.1879 5.94771 12.1085 5.89488 12.063C5.81192 11.991 5.6997 11.9825 5.59937 11.9501C5.57545 11.9429 5.54824 11.9463 5.52917 11.9578C5.44039 12.0185 5.34116 11.9873 5.27011 11.9158C5.20379 11.8683 5.12946 11.8529 5.05477 11.8275C4.89214 11.7321 4.7023 11.7753 4.53372 11.706C4.44214 11.6671 4.32992 11.5825 4.23178 11.6416C4.40801 11.7534 4.64206 11.8805 4.64266 12.119C4.64837 12.1887 4.73096 12.2564 4.70934 12.341C4.70862 12.341 4.70789 12.341 4.70716 12.341C4.70036 12.3411 4.68967 12.3486 4.69526 12.3563C4.6955 12.3614 4.69611 12.3664 4.6972 12.3713C4.68566 12.3924 4.66708 12.4146 4.63902 12.4381C4.56918 12.4979 4.50797 12.5701 4.41943 12.6002C4.31595 12.6475 4.21392 12.578 4.11142 12.568C4.00575 12.5602 3.92012 12.6267 3.81822 12.6408C3.61065 12.6676 3.40831 12.5846 3.24689 12.4642C3.19309 12.4482 3.13479 12.4543 3.07843 12.4467C3.02778 12.4401 3.01127 12.3864 2.99463 12.3476C2.95236 12.2933 2.87754 12.3155 2.82107 12.2894C2.7805 12.2758 2.75694 12.2319 2.72232 12.2139C2.59783 12.1848 2.47929 12.2628 2.35419 12.2648C2.24342 12.2738 2.12913 12.2328 2.02079 12.243C1.83776 12.2881 1.74472 12.4859 1.56861 12.543C1.55987 12.5463 1.55027 12.5483 1.5408 12.5484C1.52306 12.5486 1.50545 12.5427 1.49391 12.5283C1.50825 12.5036 1.53424 12.4945 1.55999 12.4854C1.51978 12.4881 1.47727 12.509 1.43574 12.504C1.34404 12.5063 1.26242 12.4531 1.17011 12.4595C1.0376 12.4679 0.714773 12.5794 0.967159 12.7071C0.898658 12.7624 0.798457 12.7463 0.714409 12.7716C0.64445 12.7833 0.579593 12.8208 0.508905 12.8164C0.454614 12.809 0.405425 12.7805 0.356478 12.7582C0.291742 12.7337 0.219111 12.761 0.162148 12.7943C0.0580601 12.8577 -0.0474853 13.0133 0.0242953 13.1323C0.0505298 13.1651 0.0995981 13.1635 0.135549 13.1742C0.187897 13.1864 0.240609 13.2203 0.252876 13.2774C0.257491 13.3283 0.2649 13.3849 0.274373 13.4368C0.256762 13.4561 0.228463 13.4617 0.206601 13.4756C0.0160362 13.6229 0.256398 13.7008 0.374696 13.7587C0.445991 13.7868 0.38672 13.8448 0.410647 13.898C0.444655 13.9811 0.542549 13.9996 0.596839 14.0638C0.621859 14.1051 0.637406 14.1589 0.687567 14.1793C0.789955 14.2021 0.884205 14.2369 0.969588 14.301C1.03105 14.3495 1.08291 14.4173 1.1638 14.4319C1.24712 14.4513 1.32558 14.419 1.40877 14.415C1.48481 14.415 1.55634 14.3642 1.56035 14.2841C1.56169 14.1893 1.61476 14.06 1.72723 14.1269C1.96225 14.266 2.00367 14.5701 2.34642 14.4507C2.48014 14.4272 2.62989 14.4276 2.67568 14.2696C2.69062 14.2426 2.71576 14.2188 2.74698 14.2109C2.85495 14.1761 2.98321 14.3458 3.07333 14.2235C3.09859 14.1933 3.13491 14.1739 3.17535 14.1758C3.18386 14.175 3.18932 14.1786 3.196 14.1833C3.19637 14.1848 3.20232 14.1886 3.20207 14.1913C3.16211 14.2805 3.0771 14.3932 3.11888 14.4945C3.11207 14.5042 3.1088 14.5184 3.11037 14.5313C3.10454 14.5418 3.10175 14.5543 3.10114 14.5662C3.11074 14.7033 3.17365 14.8316 3.16029 14.971C3.16054 15.1303 2.99997 15.2217 2.9775 15.3743C2.95357 15.4769 2.97519 15.5788 2.95297 15.6819C2.93438 15.7274 2.91908 15.7744 2.90463 15.8218C2.90196 15.8267 2.89989 15.8319 2.89892 15.8375C2.89916 15.8378 2.89941 15.838 2.89965 15.8383C2.87013 15.9363 2.84354 16.0359 2.79981 16.128C2.69135 16.3006 2.43945 16.2945 2.25557 16.2857C2.12792 16.2575 2.05201 16.3211 2.07618 16.4539C2.10848 16.5776 2.22059 16.6559 2.2705 16.7717C2.31447 16.9414 2.43957 17.0784 2.47674 17.2485C2.50698 17.3462 2.57779 17.4189 2.64131 17.4959C2.69111 17.5557 2.75742 17.6469 2.84487 17.6276C2.90584 17.6064 2.94289 17.541 3.0137 17.5427C3.24033 17.5509 3.30592 17.8424 3.44741 17.983C3.57142 18.153 3.75761 18.2933 3.82247 18.4989C3.82818 18.6026 3.80571 18.7216 3.87688 18.8099C3.96385 18.9445 4.1255 18.9905 4.23882 19.0945C4.35639 19.2411 4.46862 19.4063 4.5274 19.5857C4.5523 19.6962 4.50943 19.8074 4.50773 19.9182C4.5257 20.1149 4.661 20.293 4.78598 20.4393C4.89602 20.5471 5.05282 20.5985 5.14574 20.7251C5.2508 20.8307 5.24266 20.9873 5.29816 21.1171C5.42205 21.3527 5.63812 21.5231 5.76929 21.7562C5.77901 21.7695 5.78569 21.7854 5.79164 21.8019C5.792 21.8066 5.79273 21.8115 5.79395 21.8162C5.79759 21.8234 5.80124 21.8306 5.80464 21.838C5.80731 21.8448 5.81022 21.8515 5.8135 21.8578C5.85431 21.953 5.8735 22.0569 5.88237 22.1614C5.88686 22.2454 5.87034 22.337 5.8882 22.4212C5.92658 22.5537 5.99666 22.6762 6.03662 22.8092C6.0988 23.0627 6.03164 23.3308 6.3937 23.3347C6.64062 23.3567 6.78175 23.111 6.99964 23.0508C7.09766 23.0359 7.2043 23.057 7.30012 23.0204C7.40992 22.9854 7.48632 22.8947 7.59186 22.8518C7.69498 22.8244 7.80963 22.838 7.89951 22.7676C7.9883 22.694 8.06991 22.6191 8.18493 22.5864C8.32691 22.5491 8.4321 22.4509 8.55124 22.3721C8.66651 22.3041 8.80995 22.284 8.92156 22.2073C9.04472 22.1308 9.00367 21.9654 9.08468 21.8639C9.27014 21.694 9.55605 21.7203 9.79119 21.6951C9.91362 21.68 9.92686 21.5473 9.95394 21.4513C9.96099 21.4397 9.97337 21.4228 9.98637 21.4125C10.086 21.3302 10.2425 21.3366 10.3323 21.2402C10.3852 21.1577 10.4052 21.054 10.4999 21.0035C10.5534 20.9641 10.6311 20.958 10.687 20.9183C10.826 20.8223 10.7308 20.6532 10.7475 20.5177C10.7536 20.4701 10.7863 20.4254 10.8333 20.4093C10.8841 20.3929 10.9505 20.4185 10.9895 20.3726C11.0383 20.3074 11.0027 20.2201 11.0452 20.1518C11.0905 20.0885 11.152 20.0364 11.1856 19.9644C11.2198 19.8954 11.2253 19.8187 11.26 19.7488C11.3221 19.6551 11.2698 19.5074 11.1681 19.4702C11.1406 19.4513 11.1109 19.4341 11.0875 19.4073C11.0077 19.3389 10.9529 19.24 10.8647 19.18C10.7565 19.1072 10.6168 19.1306 10.4995 19.0799C10.349 19.0073 10.2171 18.8613 10.1454 18.7081C10.1056 18.6241 10.1324 18.5265 10.0991 18.4397C10.0658 18.3696 9.99244 18.3401 9.92564 18.3112C9.87985 18.2856 9.82702 18.3213 9.79678 18.3563C9.65346 18.5682 9.48755 18.7846 9.2716 18.9237C9.15792 18.9739 9.02893 18.9335 8.90796 18.968C8.83497 18.9894 8.76112 19.014 8.68606 19.0221C8.68242 19.0232 8.67841 19.0245 8.67428 19.0261C8.61695 18.9505 8.5555 18.8791 8.48869 18.8129C8.55392 18.6786 8.57578 18.52 8.52938 18.3762C8.50218 18.2979 8.4961 18.1934 8.41509 18.1507C8.3755 18.1353 8.33493 18.1625 8.32485 18.2015C8.28744 18.2852 8.2272 18.3638 8.21105 18.4583C8.2091 18.4794 8.20376 18.5048 8.20437 18.5284C8.10927 18.358 8.10586 18.1425 8.02534 17.9617C7.95004 17.7633 7.78073 17.63 7.60024 17.5349C7.37822 17.2926 7.33292 16.9609 7.48109 16.6673C7.55992 16.5368 7.71769 16.6901 7.80769 16.7388C7.94081 16.8524 8.05194 16.9941 8.16186 17.1316C8.22526 17.2359 8.25829 17.3639 8.34683 17.454C8.4559 17.5823 8.64112 17.5789 8.76428 17.6906C8.89849 17.7727 9.0197 17.8831 9.1595 17.9572C9.26128 17.9965 9.36889 18.0209 9.47297 18.0532C9.62917 18.0737 9.73326 17.9372 9.86552 17.8785C9.95103 17.8365 10.0698 17.8285 10.1528 17.8853C10.2984 18.0269 10.2587 18.3091 10.4631 18.4032C10.5825 18.4427 10.7156 18.4032 10.8363 18.4361C11.1319 18.5244 11.4322 18.5879 11.7393 18.5771C11.7989 18.6432 11.9453 18.5787 12.0221 18.5693C12.1737 18.5183 12.3232 18.5522 12.4771 18.5478C12.5346 18.5395 12.5711 18.4844 12.6294 18.479C12.6818 18.4807 12.7184 18.5222 12.7665 18.5437C12.9036 18.5995 13.0559 18.5428 13.1881 18.4974C13.2282 18.4933 13.2975 18.4945 13.3209 18.5316C13.3451 18.5751 13.3422 18.6316 13.3672 18.6749C13.3932 18.7171 13.447 18.7181 13.4792 18.7532C13.5444 18.8257 13.5809 18.922 13.654 18.9916C13.7162 19.0533 13.8024 19.0777 13.8807 19.1121C13.9879 19.1906 14.0646 19.3203 14.1973 19.3683C14.3117 19.4205 14.4362 19.4077 14.5557 19.384C14.5818 19.3814 14.6292 19.3801 14.6123 19.4203C14.5537 19.5248 14.4284 19.5541 14.3281 19.6045C14.1611 19.6973 14.3635 19.8778 14.4512 19.9524C14.5715 20.0526 14.6629 20.2119 14.8291 20.2355C15.0172 20.2362 15.2845 20.1651 15.3471 19.9649C15.3568 19.9149 15.3154 19.8775 15.3027 19.8322C15.2974 19.8135 15.2924 19.6905 15.4087 19.7604C15.4637 19.7918 15.4626 19.8629 15.4612 19.9202C15.4536 20.0233 15.5124 20.1098 15.5307 20.2074C15.5386 20.2775 15.5332 20.3407 15.5115 20.4099C15.4827 20.5959 15.5407 20.7802 15.6123 20.9495C15.7079 21.2132 15.7503 21.4931 15.7476 21.7731C15.7645 22.0041 15.9456 22.1678 16.0559 22.3554C16.1029 22.5825 16.2627 22.7606 16.3389 22.9777C16.3864 23.09 16.3679 23.2168 16.4118 23.3296C16.5495 23.5877 16.7435 23.8114 16.8472 24.0873C16.8433 24.105 16.8446 24.1245 16.8478 24.1423C16.8888 24.3207 16.9328 24.503 17.0359 24.6572C17.1416 24.7888 17.1786 24.9812 17.3422 25.0617C17.5695 25.1587 17.6051 24.8689 17.7077 24.7412C17.7475 24.6925 17.8182 24.6761 17.8589 24.6264C17.9383 24.5277 17.8954 24.3694 17.9993 24.2849C18.0543 24.238 18.14 24.2239 18.1719 24.1518C18.2051 24.0958 18.1939 24.0311 18.1732 23.9728C18.1452 23.8635 18.1273 23.7488 18.1146 23.6353C18.1027 23.4825 18.1628 23.3354 18.1751 23.1833C18.1901 22.9485 18.1543 22.7115 18.1097 22.4814C18.0873 22.3762 18.1038 22.2353 18.1986 22.1684C18.3025 22.1268 18.424 22.1051 18.4734 21.9893C18.5004 21.9437 18.5461 21.917 18.5948 21.8992C18.7251 21.8461 18.7506 21.6998 18.8179 21.5911C19.0454 21.3851 19.2834 21.1855 19.4363 20.9101C19.4642 20.8601 19.5065 20.8173 19.5417 20.7715C19.6087 20.7506 19.6137 20.6375 19.6613 20.591C19.7026 20.5467 19.766 20.5704 19.8184 20.5597C19.9348 20.5101 20.0254 20.3769 20.0446 20.2534C20.051 20.1847 20.0438 20.117 20.0704 20.0508C20.1298 19.9532 20.2259 19.8676 20.3244 19.8109C20.4072 19.7938 20.4662 19.8681 20.5364 19.9011C20.6025 19.933 20.6777 19.9264 20.7388 19.8867C20.7587 19.8772 20.7865 19.8544 20.7994 19.8307C21.0861 19.8749 21.0496 19.6397 21.1896 19.6264C21.2248 19.6225 21.2676 19.632 21.3043 19.6283C21.4172 19.5606 21.2533 19.438 21.2129 19.3727C21.2376 19.4033 21.4324 19.4779 21.4919 19.5229C21.5563 19.5756 21.5774 19.6536 21.5915 19.7345C21.6096 19.837 21.6279 19.9487 21.6715 20.0453C21.7329 20.1397 21.8268 20.202 21.8876 20.2989C21.9244 20.3441 21.9905 20.3389 22.0318 20.3741C22.0579 20.4118 22.067 20.4633 22.0974 20.5003C22.1422 20.5644 22.2193 20.5681 22.2859 20.5944C22.3296 20.6159 22.366 20.6548 22.3927 20.6969C22.4783 20.8057 22.521 20.9282 22.5562 21.062C22.6013 21.1815 22.6754 21.2868 22.6842 21.4174C22.7032 21.596 22.5692 21.7856 22.6575 21.959C22.6869 22.0071 22.7413 22.0093 22.7914 22.0201C22.9055 22.0668 23.0302 22.2039 23.1587 22.1184C23.214 22.0828 23.2349 22.0164 23.2952 21.9848C23.4713 21.8822 23.4904 21.8976 23.4872 21.6951C23.4808 21.4613 23.5727 21.6157 23.6117 21.7367C23.6582 21.871 23.7603 21.9765 23.7846 22.1194C23.8018 22.3492 23.9128 22.5533 24.002 22.7601C23.8867 23.0564 24.197 23.2771 24.2136 23.5571C24.2078 23.7054 24.0935 23.8697 24.1247 24.013C24.1373 24.0813 24.2063 24.1119 24.2407 24.1671C24.2552 24.1906 24.2757 24.2172 24.2831 24.2479C24.2836 24.2563 24.2842 24.2656 24.2856 24.2749C24.2763 24.292 24.2689 24.3111 24.2669 24.3268C24.2122 24.5767 24.1394 24.8549 24.206 25.1082C24.2241 25.1488 24.2762 25.1564 24.3065 25.1248C24.3492 25.0807 24.3521 24.9851 24.3691 24.9681C24.4552 25.0522 24.4935 25.1801 24.5943 25.2539C24.6376 25.2926 24.6822 25.3292 24.6952 25.3905C24.7178 25.4478 24.6967 25.5139 24.7143 25.5717C24.7341 25.6376 24.7996 25.6553 24.8521 25.6137C24.8593 25.6156 24.8879 25.591 24.9051 25.6605C24.9207 25.7397 24.9462 25.8236 24.9574 25.9025C24.9529 25.9342 24.8807 25.9411 24.9056 26.0579C24.9332 26.1816 25.0611 26.2411 25.0887 26.366C25.1186 26.514 25.1253 26.685 25.2528 26.7901C25.2766 26.8144 25.3032 26.8344 25.3166 26.866C25.3422 27.0537 25.5199 27.134 25.6627 27.2246C25.8522 27.3927 26.0668 27.5378 26.222 27.7394C26.3452 27.8203 26.3358 27.5926 26.3265 27.5198C26.3305 27.4359 26.3331 27.3494 26.3061 27.2675C26.2829 27.0871 26.0876 27.0098 26.0397 26.845C26.0312 26.6091 26.1002 26.3603 25.9744 26.1401C25.9051 26.0263 25.7984 25.9423 25.7304 25.8253C25.6308 25.7005 25.4881 25.6214 25.3786 25.5048C25.3143 25.4355 25.216 25.4347 25.1351 25.3972C25.0512 25.3395 24.9632 25.27 24.9143 25.1777C24.9862 25.1209 24.9846 24.9903 24.9483 24.9135C24.8904 24.8499 24.8358 24.7873 24.8265 24.6953C24.788 24.6151 24.9221 24.2844 24.771 24.3312C24.722 24.3488 24.6759 24.468 24.6548 24.4548C24.4298 24.2052 24.7294 23.882 24.755 23.6012C24.8204 23.4574 24.6405 22.9407 24.8994 22.9946C24.9472 23.0192 24.9594 23.0995 24.9608 23.1485C24.967 23.4339 25.2959 23.2252 25.4272 23.3967C25.4757 23.4483 25.4797 23.5449 25.5566 23.5682C25.618 23.5737 25.6865 23.5719 25.7284 23.6287C25.8311 23.7567 25.7679 23.9673 25.8945 24.0817C25.9145 24.0996 25.939 24.106 25.9638 24.1134C26.0039 24.1443 26.0294 24.1904 26.0687 24.2223C26.1476 24.29 26.2551 24.2078 26.307 24.1268C26.3304 24.1951 26.3817 24.2537 26.4115 24.3173C26.4052 24.4608 26.32 24.6032 26.3729 24.7486C26.3896 24.7997 26.4247 24.8607 26.4835 24.8661C26.5544 24.8518 26.5706 24.7581 26.6254 24.7166C26.6712 24.6629 26.7369 24.6206 26.7872 24.5687C26.8159 24.5327 26.8343 24.4866 26.8701 24.4567C26.9132 24.4352 26.9883 24.4346 26.993 24.3695C27.0029 24.3003 26.9894 24.2301 26.9987 24.1607C27.022 24.1413 27.0485 24.1214 27.0811 24.1145C27.1465 24.1096 27.1893 24.1761 27.262 24.1368C27.3799 24.0656 27.4614 23.9473 27.5707 23.8641C27.65 23.8033 27.7362 23.7378 27.7881 23.6489C27.8645 23.5297 27.8425 23.3875 27.8404 23.2532C27.8653 23.1303 27.798 23.0135 27.768 22.8969C27.7577 22.6904 27.7246 22.4738 27.575 22.3174C27.5187 22.2588 27.4798 22.179 27.4244 22.1201C27.4299 22.055 27.3525 21.9925 27.3133 21.9465C27.1927 21.8624 27.0683 21.7765 26.9736 21.6643C26.8621 21.4529 26.7167 21.3641 26.5832 21.1806C26.528 21.1243 26.4527 21.0876 26.4143 21.0134C26.3776 20.9516 26.3727 20.8811 26.3605 20.8109C26.3392 20.7191 26.3117 20.6135 26.3845 20.5359C26.4995 20.4639 26.5306 20.323 26.6205 20.232C26.6708 20.178 26.7504 20.1897 26.8153 20.173C26.9004 20.1584 26.9375 20.0815 26.8986 20.0042C26.9591 19.9776 27.0203 19.9453 27.059 19.8881C27.2046 19.8619 27.3695 19.9291 27.5085 19.9748C27.5193 20.0471 27.5068 20.1215 27.532 20.1917C27.5839 20.344 27.6938 20.3589 27.6721 20.4734C27.6712 20.4739 27.6703 20.4788 27.6689 20.4832L27.6359 20.5205C27.5623 20.5511 27.4768 20.5599 27.399 20.5809C27.2404 20.6172 27.2025 20.7819 27.2781 20.9131C27.354 21.0305 27.4655 21.1887 27.6227 21.1686C27.8058 21.1299 27.8992 20.9534 27.9315 20.7836C27.9894 20.7069 28.0607 20.6025 28.0139 20.5011C27.9958 20.4595 27.954 20.4354 27.9219 20.4056C27.8816 20.3504 27.8393 20.2975 27.8085 20.2355C27.778 20.1645 27.7805 19.9925 27.8382 19.9586C27.9546 19.8987 28.089 19.8827 28.2098 19.8281C28.3746 19.8095 28.5857 19.7379 28.635 19.5595C28.644 19.5257 28.6453 19.3954 28.6749 19.428C28.7907 19.5551 28.9232 19.6272 29.0694 19.4973C29.2528 19.3881 29.5189 19.4352 29.6612 19.2541C29.6997 19.2082 29.7048 19.149 29.7387 19.1005C29.8307 19.0225 29.9422 18.9556 30.0359 18.8763C30.1719 18.7713 30.2255 18.6061 30.3365 18.4784C30.3735 18.4184 30.3954 18.3445 30.3769 18.2748C30.3688 18.2351 30.341 18.2008 30.3374 18.1623C30.3368 18.128 30.3682 18.103 30.3751 18.0672C30.384 18.0399 30.3789 18.0045 30.4018 17.9842C30.4369 17.9587 30.4888 17.9468 30.5112 17.9056C30.5268 17.8782 30.5383 17.8488 30.549 17.8193C30.5523 17.8152 30.5551 17.811 30.5573 17.8071C30.6137 17.6611 30.6076 17.486 30.7374 17.3753C30.8148 17.3059 30.7509 17.2095 30.7715 17.1251C30.8008 17.0707 30.8252 17.007 30.7911 16.948C30.7771 16.9219 30.7522 16.8941 30.7676 16.864C30.888 16.7242 30.7889 16.665 30.6423 16.6631C30.6004 16.6299 30.5545 16.5881 30.4985 16.577C30.4402 16.5593 30.3611 16.6056 30.3158 16.5545C30.3697 16.5118 30.431 16.4867 30.4726 16.4231C30.5438 16.4216 30.6542 16.4217 30.6598 16.327C30.6614 16.2846 30.6084 16.2521 30.5664 16.2526C30.5477 16.2402 30.5282 16.2282 30.5126 16.2126C30.4158 16.1511 30.3286 16.0616 30.2134 16.0394C30.0721 16.0287 29.8962 15.9962 29.7953 15.8871C29.78 15.831 29.8633 15.8828 29.8906 15.8907C29.9776 15.941 30.0793 15.964 30.1782 15.9795C30.2744 15.9928 30.3793 16.0425 30.4738 16.0027C30.5823 15.9096 30.3387 15.8317 30.2778 15.7933C30.1578 15.6968 30.0502 15.5758 29.9408 15.467C29.8061 15.2518 29.7309 14.9651 29.4331 14.9387C29.3717 14.9171 29.3008 14.8882 29.2703 14.8271C29.2249 14.6932 29.3151 14.56 29.4015 14.4633C29.475 14.3878 29.5038 14.2736 29.5872 14.2097C29.6394 14.1817 29.7043 14.1898 29.7603 14.1721C29.8497 14.152 29.8951 14.0646 29.9675 14.0162C30.0311 13.9733 30.0463 13.8738 29.9804 13.8259C29.8901 13.7852 29.7801 13.7834 29.6808 13.7937C29.4285 13.8277 29.342 13.5316 29.1036 13.8144C29.0529 13.8623 29.0306 13.9848 28.9406 13.9461C28.8981 13.9343 28.8553 13.9086 28.8347 13.8658C28.7719 13.7619 28.7703 13.6107 28.655 13.5438C28.5679 13.4912 28.4726 13.5499 28.3813 13.5367C28.301 13.5045 28.2252 13.4238 28.2016 13.339C28.2069 13.2773 28.2828 13.2814 28.3283 13.2674C28.4414 13.24 28.5575 13.1587 28.5713 13.0348C28.6185 12.9155 28.7702 12.881 28.8428 12.7754C28.9016 12.7039 28.9853 12.5744 29.0914 12.6406C29.1649 12.693 29.2166 12.7722 29.1972 12.8675C29.1808 12.9216 29.1412 12.9791 29.1589 13.038C29.1661 13.0879 29.2102 13.115 29.2352 13.1536C29.2383 13.2236 29.169 13.3128 29.2283 13.3773C29.3759 13.4515 29.49 13.2318 29.5844 13.1492C29.6592 13.0821 29.7594 13.0516 29.8534 13.0188C29.9151 13.0043 29.9648 12.9716 30.0071 12.9299C30.011 12.9355 30.0157 12.9408 30.021 12.9453C30.0308 12.965 30.0512 12.9807 30.0694 12.992C30.1617 13.0775 30.2827 13.0914 30.4006 13.1006C30.4474 13.1203 30.4334 13.1936 30.4561 13.2345C30.465 13.2838 30.5316 13.3056 30.5216 13.3472C30.4466 13.411 30.4361 13.5503 30.4725 13.6391C30.6012 13.8307 30.876 13.6757 31.0532 13.7529C31.0526 13.7532 31.0578 13.7569 31.0599 13.7582C31.0601 13.759 31.0624 13.7612 31.0646 13.7637C31.0684 13.7681 31.0725 13.7734 31.0765 13.7789C31.1189 13.8472 31.1586 13.9243 31.2074 13.9909C31.2131 13.9995 31.217 14.015 31.2133 14.0267C31.2135 14.0261 31.2133 14.0265 31.2133 14.027C31.2131 14.0277 31.2129 14.0284 31.2129 14.0292C31.1712 14.0711 31.1659 14.1386 31.1893 14.1931C31.2614 14.3021 31.3588 14.3975 31.4059 14.5233C31.4458 14.6201 31.4115 14.7278 31.433 14.8289C31.4569 14.9487 31.559 15.0593 31.6846 15.0661C31.8219 15.0674 31.9007 14.8969 32.0421 14.858C32.1165 14.8178 32.2114 14.8316 32.2884 14.8008C32.343 14.7626 32.3783 14.6917 32.3823 14.6254C32.3866 14.5145 32.3388 14.4009 32.2422 14.3445C32.199 14.2535 32.1927 14.1366 32.1213 14.0578C32.0319 13.9623 31.9676 13.8506 31.9007 13.7385C31.8413 13.6601 31.7536 13.6172 31.6772 13.5586C31.6244 13.5178 31.5881 13.4621 31.5494 13.409C31.4834 13.3444 31.3975 13.3097 31.3159 13.2707C31.2244 13.2149 31.098 13.0965 31.1604 12.9807C31.181 12.9497 31.2192 12.9333 31.2493 12.9048C31.2949 12.872 31.3109 12.8203 31.3511 12.7811C31.3897 12.7493 31.445 12.7277 31.4765 12.6851C31.5231 12.6236 31.5371 12.5369 31.5107 12.4641C31.476 12.386 31.381 12.3399 31.3964 12.2413C31.3962 12.1838 31.4456 12.1405 31.4658 12.0881C31.4933 12.026 31.4578 11.9683 31.4039 11.9412C31.4099 11.9377 31.4152 11.9333 31.4199 11.9283C31.485 11.9153 31.5457 11.8704 31.589 11.8217C31.6237 11.799 31.6464 11.7277 31.6895 11.7279C31.9379 11.8361 32.2645 11.8961 32.5026 11.7324C32.6517 11.6139 32.6356 11.4055 32.6426 11.2339C32.6484 11.1431 32.708 11.0794 32.7551 11.0081C32.8556 10.8231 32.8747 10.6089 32.8574 10.4021C32.8505 10.2493 32.8532 10.0897 32.8766 9.93825C32.8953 9.83823 32.9472 9.73114 32.902 9.631C32.7774 9.34021 32.5579 9.11017 32.403 8.84158C32.3568 8.72461 32.4017 8.58604 32.3413 8.47053C32.2354 8.27818 32.013 8.18316 31.9243 7.97397C31.8695 7.91335 31.7803 7.90262 31.7071 7.87493C31.508 7.80175 31.3489 7.62964 31.1298 7.61232C30.9309 7.61549 31.1412 7.85066 30.9939 7.88725C30.851 7.89628 30.7454 7.76076 30.6079 7.75113C30.4454 7.76162 30.3469 7.59854 30.2082 7.53853C30.0632 7.45107 29.5758 7.51145 29.8815 7.24628C29.9823 7.17602 30.0936 7.09064 30.1103 6.95951C30.1152 6.9117 30.107 6.86389 30.1095 6.81619C30.1107 6.80497 30.113 6.79265 30.1149 6.78021C30.1242 6.75716 30.131 6.73337 30.1322 6.72008C30.1647 6.61469 30.2488 6.53248 30.2972 6.43429C30.3518 6.34623 30.3178 6.24657 30.3298 6.15192C30.3636 6.06642 30.4402 6.00043 30.465 5.90761C30.4822 5.89443 30.5002 5.88211 30.5227 5.87626C30.721 5.85223 30.9261 5.86565 31.1271 5.88626C31.1981 5.8959 31.2678 5.92858 31.3397 5.94298C31.4115 5.95322 31.4865 5.9281 31.5536 5.91261C31.7677 5.86284 32.0052 5.95969 32.1929 5.81076C32.2555 5.78319 32.3239 5.80954 32.3886 5.81966C32.4992 5.85052 32.6101 5.82503 32.7217 5.8193C32.7926 5.82174 32.8717 5.83796 32.9134 5.90321C32.948 5.95774 32.9317 6.06495 33.0417 6.05056C33.1713 6.03922 33.2947 6.00628 33.4095 5.94591C33.5255 5.93493 33.6585 5.9803 33.758 5.89346C33.8438 5.73574 33.4961 5.78514 33.4387 5.70769C33.4007 5.61377 33.3894 5.50375 33.4031 5.40239C33.4405 5.30127 33.4449 5.1943 33.4308 5.0883C33.4368 5.05269 33.4725 5.04134 33.5038 5.03256C33.635 5.00829 33.77 4.99255 33.9056 5.00865C34.0187 5.03793 34.1456 5.00634 34.251 5.04793C34.3273 5.10721 34.3705 5.21003 34.4485 5.27212C34.5956 5.42617 34.764 5.31896 34.8313 5.14929C34.8624 5.09635 34.9397 5.10526 34.9799 5.06049C35.0564 4.9784 34.8642 4.90254 34.7815 4.78544C34.7742 4.7741 34.7737 4.75848 34.774 4.74519C34.7745 4.74482 34.7748 4.7408 34.7753 4.73628C34.7753 4.73628 34.7887 4.65407 34.8874 4.66164C35.0433 4.66591 35.0836 4.87412 35.1658 4.98133C35.2206 5.0783 35.3454 5.15356 35.3329 5.27285C35.2969 5.35372 35.1984 5.38897 35.1543 5.46667C35.1286 5.50204 35.1197 5.54595 35.12 5.58901C35.1223 5.76892 35.1483 5.95237 35.0813 6.12533C35.0521 6.24682 34.8975 6.25682 34.8456 6.36013C34.7824 6.48698 34.9235 6.55931 34.9717 6.65885C35.0408 6.86364 34.9845 7.12393 35.1969 7.25847C35.468 7.45766 35.7901 7.59207 35.99 7.87554C36.1761 8.08582 36.4054 8.25635 36.6076 8.45114C36.7525 8.55945 36.8683 8.71826 37.0367 8.78913C37.0645 8.7973 37.0963 8.78401 37.1012 8.75339C37.1287 8.63178 37.1744 8.50042 37.1528 8.37612C37.1229 8.27245 36.9685 8.23402 36.947 8.14352C36.9972 8.07924 37.133 8.14998 37.1973 8.08546C37.307 7.92714 36.9906 7.82931 36.98 7.68258C37.0272 7.59768 37.1601 7.61134 37.2106 7.52364C37.3121 7.2736 36.868 7.24018 36.8301 7.02538C36.8379 6.94841 36.9444 6.9844 36.9991 6.9794C37.1059 6.97891 37.0939 6.89523 37.0346 6.83559C36.9278 6.70593 36.7357 6.70666 36.6287 6.57798C36.5317 6.37074 36.5464 6.28682 36.2762 6.3039C36.197 6.30756 36.1109 6.30646 36.0552 6.23864C35.9615 6.06983 35.8832 5.88894 35.8 5.71403C35.8016 5.66122 35.8811 5.64695 35.9259 5.63816C35.9953 5.62438 36.0773 5.68146 36.1393 5.63194C36.2104 5.57486 36.1796 5.50106 36.2264 5.50472C36.3054 5.50155 36.358 5.56327 36.4144 5.6106C36.4579 5.64451 36.535 5.64073 36.55 5.57888C36.5587 5.54766 36.5457 5.51607 36.5527 5.48374C36.6006 5.43105 36.7407 5.47057 36.8142 5.47081C37.0144 5.48167 37.2006 5.55059 37.3735 5.65256C37.4529 5.70684 37.5949 5.67427 37.5856 5.56095C37.5456 5.45984 37.5749 5.35811 37.6073 5.25516C37.7271 5.0139 38.0108 4.93315 38.2052 4.76653C38.3812 4.71116 38.5796 4.80679 38.762 4.75995C38.8111 4.75031 38.8514 4.70018 38.8323 4.64968C38.7333 4.47355 38.4898 4.47209 38.3197 4.40012C38.172 4.35048 38.0599 4.23436 37.9159 4.17691C37.8043 4.12702 37.6815 4.15154 37.566 4.11885C37.4865 4.09836 37.407 4.05664 37.3277 4.0331C37.241 4.02847 36.9459 3.95065 37.1668 3.87954C37.3079 3.85892 37.4285 3.95565 37.5652 3.97468C37.6581 3.99273 37.7527 3.93845 37.8302 3.89173C37.9527 3.75732 37.6073 3.57984 37.5159 3.52422C37.4049 3.42384 37.5615 3.43774 37.6318 3.45324C37.7003 3.47031 37.7277 3.55155 37.7876 3.58802C37.9023 3.6451 38.0005 3.75964 38.1353 3.75829C38.1401 3.76146 38.1459 3.76329 38.152 3.76329C38.1609 3.76329 38.1688 3.75854 38.1739 3.75171C38.1774 3.75012 38.1808 3.74829 38.184 3.74622C38.3515 3.72512 38.5241 3.7389 38.6929 3.7561C38.7924 3.79537 38.863 3.90454 38.9811 3.90735C39.1094 3.92845 39.2392 3.89064 39.3653 3.92662C39.5588 4.00676 39.7316 4.13019 39.949 4.13727C40.171 4.08519 39.6061 3.79342 39.5647 3.71536C39.6616 3.71024 39.7707 3.75122 39.8628 3.70548C39.9507 3.63278 39.8166 3.48812 39.7508 3.44165C39.5966 3.34553 39.408 3.3348 39.2381 3.27869L39.2375 3.27967ZM34.0525 10.1693C34.1138 10.2394 34.6235 10.5069 34.4202 10.5965C34.3199 10.5842 34.245 10.4776 34.1396 10.4808C34.1684 10.5486 34.2198 10.6877 34.0974 10.6836C33.9969 10.6401 33.9198 10.5423 33.8534 10.4586C33.8167 10.4015 33.8116 10.3332 33.7755 10.277C33.742 10.2215 33.6896 10.1805 33.667 10.1183C33.6458 10.0614 33.6474 9.99619 33.6172 9.94545C33.5261 9.78956 33.3526 9.71053 33.2732 9.54769C33.2396 9.47682 33.2289 9.39254 33.1859 9.32667C33.1079 9.20555 32.9876 9.11383 32.9313 8.97758C32.8594 8.74754 32.6402 8.6552 32.4764 8.507C32.4077 8.4365 32.3996 8.33368 32.3519 8.25208C32.3056 8.15047 32.2241 8.08668 32.1439 8.01496C32.113 7.97763 32.0726 7.91543 32.1233 7.877L32.1237 7.87591C32.1237 7.87591 32.1243 7.87469 32.1243 7.8742C32.1027 7.78235 32.0058 7.72661 31.985 7.63245C31.9669 7.53511 32.0769 7.53633 32.1295 7.58817C32.3281 7.7887 32.5329 7.98349 32.7324 8.18377C32.8713 8.361 33.0002 8.55457 33.1655 8.70668C33.2755 8.86561 34.117 9.38766 33.9476 9.53C33.845 9.52403 33.7352 9.4445 33.6294 9.48121C33.6534 9.5733 33.7269 9.6438 33.7694 9.72785C33.8379 9.89458 33.9186 10.048 34.0527 10.1694L34.0525 10.1693ZM35.5274 13.2653C35.5045 13.3328 35.5565 13.3989 35.5239 13.4622C35.5105 13.4837 35.4865 13.5011 35.4744 13.5217C35.4632 13.5714 35.4546 13.6253 35.4709 13.6731C35.501 13.792 35.6062 13.861 35.6569 13.9637C35.6558 14.0406 35.6356 14.1247 35.6729 14.1986C35.7211 14.2914 35.8232 14.336 35.8849 14.4161C35.9469 14.4969 35.8585 14.5761 35.8245 14.6487C35.7874 14.7171 35.6346 14.892 35.6004 14.7375C35.6024 14.6674 35.6299 14.5788 35.5913 14.5189C35.5721 14.5514 35.5445 14.5766 35.5203 14.6049C35.4903 14.6657 35.4929 14.7372 35.4657 14.7995C35.4439 14.8783 35.3592 14.9132 35.3133 14.8321C35.2921 14.7994 35.2949 14.7462 35.2769 14.7343C35.2478 14.7758 35.236 14.8678 35.1709 14.8581C35.1342 14.8727 35.102 14.913 35.0616 14.9277C34.9971 14.9468 34.9237 14.9397 34.8713 14.8943C34.8339 14.8659 34.7963 14.8241 34.7491 14.8177C34.7033 14.8115 34.7044 14.853 34.7293 14.8779C34.818 14.9513 34.8619 15.0082 34.7573 15.097C34.6901 15.181 34.7056 15.366 34.5697 15.3743C34.4881 15.3389 34.4339 15.2501 34.3621 15.1961C34.2489 15.1085 34.3463 14.9374 34.2826 14.9219C34.1978 14.912 34.1113 14.8783 34.0264 14.8754C33.9536 14.9046 33.8999 14.9682 33.8268 14.9991C33.7108 15.063 33.5719 15.0783 33.4489 15.1042C33.3568 15.1463 33.2744 15.2219 33.1652 15.1951C33.0735 15.1827 32.9133 15.1091 32.9807 14.9956C33.0264 14.9529 33.0887 14.9337 33.1351 14.8915C33.2887 14.7536 33.4026 14.4978 33.6481 14.5682C33.7958 14.5965 33.9272 14.4947 34.0709 14.5092C34.1367 14.5234 34.198 14.5811 34.2661 14.5619C34.3517 14.5127 34.2884 14.4133 34.2808 14.3401C34.277 14.2631 34.3331 14.191 34.3412 14.1172C34.3491 14.0499 34.2855 13.9987 34.2879 13.9324C34.2947 13.8611 34.3953 13.7837 34.4631 13.8222C34.5295 13.8638 34.3986 13.9378 34.4955 14.0418C34.5155 14.0646 34.5376 14.0839 34.5658 14.0838C34.5889 14.0828 34.6135 14.0729 34.6295 14.0606C34.7067 13.9794 34.8308 13.9223 34.8629 13.8097C34.8611 13.7352 34.8271 13.6183 34.9285 13.5974C34.9353 13.5722 34.9591 13.5521 34.958 13.5275C34.948 13.4131 34.9076 13.3074 34.9007 13.194C34.8935 13.1213 34.8799 13.0496 34.8405 12.9891C34.7515 12.8941 34.6146 12.8089 34.6433 12.6566C34.6303 12.6034 34.5951 12.5323 34.6637 12.5037C34.7403 12.4726 34.8167 12.5362 34.8829 12.5625C34.9269 12.5822 34.9715 12.5584 35.0168 12.568C35.1442 12.6063 35.1939 12.764 35.3097 12.8261C35.4385 12.9313 35.6018 13.0847 35.5276 13.2655L35.5274 13.2653ZM31.3526 20.9769C31.4311 20.9889 31.4958 21.0483 31.5656 21.0774C31.5691 21.0778 31.5729 21.0782 31.577 21.0784C31.6283 21.071 31.6792 21.044 31.7285 21.0729C31.8301 21.1267 31.804 21.2524 31.7726 21.3409C31.7575 21.4404 31.8437 21.5101 31.8752 21.5958C31.9051 21.7278 31.8913 21.9063 31.7639 21.9825C31.6969 22.0335 31.6685 22.1345 31.6731 22.2146C31.6979 22.3254 31.8305 22.444 31.8067 22.5605C31.8074 22.5647 31.808 22.5686 31.8084 22.5724C31.8119 22.6214 31.8511 22.6686 31.883 22.7059C31.9041 22.7301 31.9409 22.7453 31.9714 22.7304C32.0328 22.7031 32.046 22.6008 32.119 22.6108C32.2013 22.641 32.2732 22.7063 32.3328 22.7711C32.3636 22.84 32.4029 22.8985 32.4628 22.9449C32.5124 22.8968 32.5328 22.8113 32.6072 22.7944C32.6712 22.7808 32.7197 22.8574 32.7077 22.9149C32.6945 22.9733 32.6368 23.019 32.6264 23.0738C32.6377 23.0964 32.6626 23.1128 32.6702 23.1391C32.6819 23.1632 32.6796 23.1933 32.6988 23.2074C32.7285 23.2158 32.751 23.2432 32.7816 23.2466C32.8687 23.2271 32.9781 23.232 33.0344 23.3118C33.1267 23.408 33.1071 23.5513 33.141 23.6676C33.1513 23.7117 33.1782 23.7532 33.1761 23.7998C33.1692 23.8621 33.0947 23.8541 33.0591 23.8203C32.9526 23.7259 32.9095 23.5752 32.8021 23.4825C32.7336 23.4289 32.6467 23.3987 32.5891 23.3309L32.4533 23.1814C32.4096 23.1959 32.376 23.2724 32.286 23.2037C32.2566 23.1824 32.2417 23.1464 32.2263 23.1161C32.1973 23.0721 32.1639 23.0357 32.1363 22.9913C32.1413 23.0167 32.1248 23.0437 32.109 23.0514C32.1103 23.0653 32.1006 23.0723 32.0717 23.0626C32.0326 23.0472 32.0275 23.0038 31.9957 23.0276C31.8646 23.1398 31.8555 22.9751 31.8451 22.8806C31.8231 22.8575 31.7975 22.8694 31.7706 22.8714C31.7506 22.8724 31.7262 22.8636 31.7101 22.8756C31.594 22.9749 31.457 22.8451 31.4326 22.7245C31.4107 22.657 31.5435 22.5202 31.4359 22.4984H31.4354C31.2739 22.6801 31.1965 22.4859 31.1692 22.3278C31.1336 22.1835 30.9867 22.0195 31.0879 21.8721C31.1127 21.8504 31.1404 21.8722 31.1648 21.8815C31.2116 21.8875 31.2584 21.8843 31.2218 21.8271C31.2015 21.7877 31.1656 21.7523 31.1631 21.7052C31.1567 21.64 31.1941 21.5867 31.2005 21.5266C31.197 21.4324 31.1217 21.3571 31.1423 21.26C31.1438 21.2285 31.1245 21.2014 31.137 21.1689C31.1505 21.1237 31.1686 21.0779 31.1921 21.0372C31.2273 20.9912 31.2961 20.9725 31.3522 20.9769H31.3526ZM26.9661 28.7074C27.0106 28.7947 27.0274 28.9027 27.0861 28.9816C27.1163 29.0185 27.1524 29.0409 27.1857 29.0731C27.2331 29.1425 27.152 29.2533 27.0718 29.2473C26.9467 29.2371 26.8801 29.0873 26.8385 28.9846C26.7923 28.9725 26.7491 28.9609 26.7014 28.9544C26.6492 28.9354 26.5978 28.8676 26.6157 28.8111C26.6295 28.7812 26.6638 28.7676 26.6823 28.7455C26.7545 28.6247 26.8695 28.5884 26.9659 28.7076L26.9661 28.7074ZM26.7778 29.1635C26.884 29.3515 26.7891 29.5874 26.8218 29.7935C26.8255 29.9306 26.8707 30.0978 26.7599 30.2047C26.6839 30.2854 26.5881 30.2385 26.4981 30.2305C26.4561 30.2404 26.4149 30.2722 26.3674 30.2671C26.3008 30.266 26.2315 30.2104 26.2288 30.1414C26.0939 29.8655 25.7695 29.7622 25.6338 29.4903C25.5347 29.3723 25.3857 29.3187 25.3106 29.1718C25.1825 28.9426 25.176 28.6979 25.0025 28.4909C24.904 28.3242 24.8508 28.1165 24.6793 28.0091C24.5968 27.9421 24.6161 27.8274 24.5912 27.7354C24.5583 27.6038 24.5092 27.4688 24.4024 27.3819C24.3285 27.3201 24.2351 27.2836 24.1574 27.2246C24.078 27.1656 24.0929 27.0501 24.0422 26.9715C23.9849 26.8803 23.9267 26.7751 23.8524 26.7012C23.6773 26.6431 23.5734 26.5002 23.4443 26.378C23.2534 26.1753 23.1149 25.8487 23.5528 26.0083C23.7278 26.0944 23.9626 25.9794 24.0979 26.148C24.2431 26.4071 24.4446 26.553 24.6532 26.7527C24.8431 26.9148 24.9555 27.1692 25.1667 27.3014C25.2052 27.3202 25.2262 27.247 25.3045 27.288C25.4917 27.405 25.616 27.6371 25.7964 27.7818L25.7958 27.7819C25.8866 27.8035 25.9619 27.8578 25.8648 27.935C25.8234 27.9652 25.8779 27.9913 25.8812 27.9912C25.9181 27.9877 25.937 27.9521 25.9648 27.9331C26.0659 27.8964 26.1709 28.0172 26.1369 28.1167C26.1189 28.2034 26.0019 28.2295 25.9897 28.3127C25.988 28.379 26.041 28.4154 26.0913 28.4447C26.1527 28.4611 26.2185 28.4364 26.2783 28.4636C26.4185 28.5294 26.4372 28.7112 26.4796 28.8445C26.4961 28.8997 26.4419 29.006 26.4807 29.0409C26.5885 29.0102 26.7146 29.0715 26.7779 29.1633L26.7778 29.1635ZM2.80285 14.586C2.81475 14.6721 2.72196 14.7188 2.7001 14.7959C2.68078 14.8739 2.60402 14.9105 2.53734 14.9414C2.45123 15.0074 2.36305 15.082 2.24755 15.0691C2.16289 15.0578 2.08747 15.0091 2.0101 14.9753C1.94974 14.9402 1.96942 14.8492 2.02346 14.8181C2.11553 14.7699 2.1963 14.7044 2.28763 14.657C2.33864 14.6395 2.39208 14.6523 2.44419 14.6542C2.5218 14.6549 2.59163 14.6117 2.65261 14.5678C2.66657 14.4907 2.79483 14.514 2.80297 14.586H2.80285ZM34.4934 11.0558C34.6925 11.1573 34.8529 11.2734 35.0832 11.3096C35.1495 11.3223 35.2186 11.3511 35.2854 11.3349C35.3335 11.3294 35.3671 11.2851 35.4132 11.2791C35.5209 11.2634 35.5328 11.4382 35.5987 11.4961C35.6468 11.5662 35.7727 11.6213 35.7444 11.7193C35.6871 11.7865 35.5881 11.816 35.5021 11.8229C35.4707 11.8252 35.4292 11.8169 35.4033 11.8296C35.3515 11.9148 35.4128 12.1296 35.266 12.1515C35.2535 12.1501 35.2414 12.1456 35.2326 12.1364C35.1718 12.0768 35.0871 12.0519 35.0152 12.0111C34.662 11.821 34.6913 12.0415 34.5737 12.0184C34.5363 12.0121 34.5052 11.9772 34.4665 11.9806L34.4657 11.9814C34.5121 12.0802 34.6219 12.1112 34.7102 12.1581C34.7665 12.2045 34.7142 12.2839 34.6569 12.2992C34.5693 12.3072 34.5661 12.411 34.4866 12.4126C34.3993 12.3758 34.4015 12.2456 34.3546 12.1712C34.3231 12.1009 34.2582 12.0582 34.1985 12.0125C34.1156 11.9512 34.1717 11.8667 34.2187 11.8037C34.221 11.7624 34.2079 11.7053 34.2585 11.6866C34.3253 11.6715 34.4331 11.7283 34.4708 11.6532C34.4531 11.6094 34.4144 11.5767 34.3884 11.5376C34.3506 11.4932 34.3927 11.4495 34.4074 11.4063C34.3912 11.2607 33.9588 10.9734 34.1843 10.8665C34.3149 10.8576 34.3771 11.0189 34.4935 11.0557L34.4934 11.0558ZM33.9342 15.0543C33.9871 15.0414 34.0595 15.0461 34.1006 15.0845C34.2482 15.1166 34.2525 15.2956 34.1445 15.3777C34.079 15.4326 33.9889 15.406 33.9191 15.4371C33.9012 15.4502 33.8965 15.4714 33.895 15.4925C33.8988 15.5747 33.8691 15.6986 33.767 15.6948C33.6746 15.6725 33.6417 15.5642 33.5942 15.4925C33.5614 15.4475 33.4992 15.4214 33.4909 15.3612C33.48 15.2918 33.5475 15.2406 33.5883 15.1929C33.6322 15.1388 33.6989 15.1375 33.7614 15.1473C33.8291 15.1363 33.869 15.0724 33.9342 15.0545V15.0543ZM33.4948 15.8274C33.5378 15.9332 33.6617 16.0773 33.5217 16.1631C33.4817 16.2276 33.4897 16.3641 33.3718 16.328C33.3295 16.3158 33.3016 16.2542 33.2585 16.2869C33.0945 16.3556 33.1451 16.0795 33.0833 16.0006C32.981 15.8747 33.0666 15.8352 33.0862 15.7668C33.1037 15.6998 33.0703 15.6195 33.0001 15.6041C33.0189 15.6872 32.9951 15.8061 32.8979 15.7502C32.8672 15.7206 32.8594 15.6751 32.8334 15.6417C32.7913 15.564 32.665 15.5377 32.6751 15.4354C32.6872 15.3606 32.7847 15.3546 32.8235 15.3028C32.8577 15.2696 32.8811 15.2163 32.9298 15.2033C33.0188 15.2044 33.1104 15.2438 33.1771 15.3023C33.2797 15.2396 33.3325 15.3706 33.3736 15.4384C33.4189 15.4819 33.4997 15.4976 33.5047 15.5758C33.5144 15.619 33.5011 15.6581 33.4827 15.6959C33.474 15.7406 33.4796 15.7856 33.4947 15.8275L33.4948 15.8274ZM31.6735 22.9466C31.7335 22.9626 31.7816 23.0511 31.7981 23.1065C31.8266 23.2086 31.8205 23.4416 31.6776 23.4405C31.5492 23.3944 31.5487 23.2503 31.4875 23.1502C31.3235 22.9922 31.4137 22.8966 31.5797 22.9513C31.6025 22.9422 31.6385 22.938 31.6585 22.9416C31.6637 22.9423 31.6688 22.9441 31.6736 22.9467L31.6735 22.9466ZM31.9564 23.546C32.0625 23.524 32.1462 23.6273 32.2364 23.6667C32.3249 23.6051 32.405 23.7159 32.3539 23.7978C32.3166 23.8525 32.2573 23.888 32.2267 23.9484C32.1895 24.0106 32.1199 24.0768 32.0422 24.0502C31.9407 24.0146 31.9892 23.8913 31.9637 23.815C31.953 23.7459 31.9051 23.6903 31.8906 23.6229C31.8811 23.5801 31.9189 23.5527 31.9564 23.5461V23.546ZM32.4463 23.8724C32.6392 23.8944 32.4848 24.1889 32.4736 24.3044C32.4629 24.4087 32.537 24.617 32.3778 24.6279C32.3202 24.6142 32.3064 24.5416 32.2617 24.5113C32.2312 24.4809 32.1832 24.4798 32.1524 24.4515C32.0756 24.3604 32.0915 24.2772 32.215 24.2542C32.279 24.1658 32.2494 24.0459 32.3133 23.9567C32.3406 23.9135 32.3876 23.847 32.4463 23.8722V23.8724ZM31.1729 18.5221C31.2838 18.8147 31.1959 19.1348 31.1134 19.4223C31.0902 19.5178 31.154 19.723 31.0053 19.7223C30.9452 19.7097 30.9171 19.6463 30.8915 19.5964C30.846 19.464 30.699 19.3981 30.6768 19.2558C30.6455 19.0737 30.726 18.8928 30.8207 18.743C30.8541 18.6493 30.8841 18.5393 30.9796 18.49C31.0232 18.4054 31.1426 18.4466 31.1729 18.5222V18.5221ZM33.4558 24.5032C33.5202 24.5702 33.4721 24.6679 33.4586 24.745C33.4561 24.7507 33.4559 24.7585 33.457 24.7675C33.4938 24.8069 33.4937 24.88 33.5202 24.9265C33.5666 25.0434 33.6755 25.1947 33.582 25.3136C33.5829 25.3115 33.5832 25.3118 33.5838 25.3101C33.5498 25.3639 33.5648 25.4247 33.5546 25.4833C33.5502 25.5432 33.476 25.5837 33.427 25.5467C33.3859 25.4919 33.3842 25.4166 33.3446 25.3616C33.3378 25.3506 33.3236 25.3628 33.3172 25.3651C33.2832 25.3986 33.282 25.4621 33.288 25.5024C33.3438 25.6343 33.4453 25.7932 33.3576 25.9329C33.3311 25.9742 33.2858 26.0245 33.2317 26.0088C33.2016 25.998 33.1966 25.9624 33.1913 25.9357C33.1764 25.8765 33.1389 25.8079 33.08 25.7904C32.8708 25.8182 32.7243 25.6112 32.7719 25.4132C32.7848 25.3601 32.8244 25.3156 32.8427 25.2674C32.8424 25.1986 32.7536 25.1683 32.7039 25.1466C32.6426 25.1266 32.6296 25.2242 32.5261 25.2569C32.4668 25.2791 32.4158 25.233 32.3598 25.2315C32.2659 25.2401 32.2722 25.383 32.1882 25.4155C32.076 25.4602 32.0597 25.324 32.0703 25.2439C32.0531 25.0957 32.1743 24.9727 32.3077 24.9328C32.4272 24.8856 32.529 24.6996 32.6732 24.7734C32.717 24.8108 32.7305 24.8783 32.7679 24.9189C32.7814 24.9331 32.8015 24.926 32.8115 24.9118C32.8579 24.8277 32.9206 24.7497 33.0067 24.7033C33.0589 24.6847 33.1077 24.6592 33.1347 24.6131C33.1832 24.549 33.0933 24.4696 33.1414 24.4072C33.1768 24.355 33.2521 24.3332 33.2988 24.3836C33.3087 24.3904 33.3191 24.4078 33.3221 24.4236C33.3655 24.4225 33.4314 24.478 33.4558 24.5032ZM29.6721 26.2442C29.7214 26.1813 29.8067 26.1677 29.8725 26.1365C29.8941 26.1004 29.9126 26.0773 29.9273 26.0643C29.9259 26.0586 29.9249 26.0532 29.9239 26.0478C29.9222 25.9656 29.9789 25.8946 30.0555 25.8706C30.216 25.7822 30.3163 25.6251 30.3988 25.4683L30.3982 25.4688C30.4055 25.3702 30.4554 25.2737 30.5196 25.2008C30.6037 25.1422 30.6882 25.2342 30.7046 25.3156C30.7424 25.4523 30.6942 25.6195 30.7812 25.7363C30.8326 25.7621 30.8805 25.7829 30.883 25.8493C30.9373 25.8825 31.0093 25.8719 31.0705 25.8898C31.1319 25.9097 31.2071 25.9259 31.2529 25.9711C31.2986 26.1054 31.1044 26.1833 30.9985 26.1907C30.9734 26.1968 30.9771 26.2078 30.9797 26.2281C31.0107 26.273 31.0814 26.2867 31.1088 26.3371C31.1513 26.4158 31.0378 26.4618 30.9776 26.4773C30.9198 26.4984 30.8267 26.4786 30.7937 26.5351C30.863 26.63 30.9056 26.8345 30.7184 26.7689C30.7042 26.7672 30.6903 26.7699 30.6807 26.7794C30.6937 26.8627 30.8029 26.8997 30.8336 26.98C30.8684 27.0272 30.8194 27.1109 30.8852 27.1225C30.9462 27.131 31.0265 27.1136 31.0697 27.1676C31.0967 27.2024 31.0662 27.2453 31.0323 27.2609C30.9617 27.2941 30.849 27.3235 30.925 27.3961C31.009 27.4545 31.1395 27.4205 31.1941 27.5244C31.2168 27.5816 31.2343 27.6546 31.1994 27.7088C31.1903 27.7203 31.1723 27.7296 31.1558 27.7299C31.0867 27.7676 30.9923 27.7479 30.9203 27.7241C30.8748 27.7246 30.8666 27.711 30.8223 27.7659C30.7721 27.8397 30.7424 27.9275 30.6884 27.999C30.6876 28.1243 30.8357 28.2366 30.7467 28.3576C30.7238 28.3954 30.6771 28.4045 30.6425 28.4237C30.6 28.4536 30.5717 28.497 30.5307 28.529C30.4627 28.5877 30.3371 28.6205 30.3301 28.7241C30.3208 28.8351 30.4729 28.7804 30.4573 28.984C30.4512 29.0623 30.3729 29.0414 30.3226 29.1518C30.2714 29.2854 30.1974 29.4059 30.0714 29.48C29.9848 29.5338 29.904 29.6202 29.7984 29.6292C29.6777 29.6026 29.7071 29.442 29.6501 29.3594C29.6143 29.329 29.5656 29.3321 29.5214 29.3306C29.5005 29.3484 29.4911 29.3738 29.4707 29.3917C29.3744 29.4449 29.3273 29.2897 29.2814 29.2335C29.2656 29.221 29.2407 29.2218 29.2222 29.2327C29.05 29.341 28.7088 29.5786 28.76 29.1858C28.7413 29.174 28.7363 29.1635 28.739 29.1557C28.729 29.1522 28.7185 29.1506 28.7071 29.1524C28.6057 29.1628 28.5179 29.239 28.4127 29.2073C28.2163 29.1712 28.1705 28.9353 28.1998 28.7657C28.2073 28.6817 28.2491 28.5805 28.1931 28.5076C28.1341 28.4562 28.0524 28.4299 28.0126 28.3581C27.9621 28.2819 27.9867 28.1825 27.9744 28.1C27.9556 28.0406 27.9064 27.9985 27.8895 27.9379C27.8488 27.8339 27.8879 27.7205 27.9114 27.6176C27.9134 27.5115 27.9196 27.3673 28.0304 27.3168C28.0903 27.3024 28.147 27.3546 28.2028 27.3668C28.2412 27.3691 28.2874 27.3568 28.3292 27.3615C28.3954 27.3735 28.4426 27.4428 28.5053 27.4579C28.6347 27.4796 28.5846 27.2176 28.6054 27.136C28.6241 27.0632 28.6866 26.9946 28.7566 26.9677C28.8326 26.9358 28.9169 26.9619 28.9949 26.9511C29.0255 26.9467 29.0451 26.9303 29.07 26.9159C29.1147 26.8832 29.1709 26.8814 29.2208 26.8681C29.3518 26.7417 29.3879 26.5293 29.5418 26.421C29.5432 26.4105 29.5506 26.3985 29.5587 26.3925C29.5775 26.3794 29.5989 26.3836 29.6189 26.3919C29.6083 26.3424 29.6479 26.2847 29.6723 26.244L29.6721 26.2442ZM31.9896 27.5791C32.2682 27.6255 32.5553 27.7863 32.838 27.6809C32.9201 27.6331 32.9801 27.5537 33.0489 27.4884C33.0883 27.3833 33.281 27.2878 33.3363 27.4282C33.3615 27.5107 33.2515 27.55 33.2376 27.6247C33.2156 27.6931 33.1619 27.7431 33.1218 27.7999C33.0896 27.8845 33.0213 27.9444 32.9366 27.9738C32.8289 28.0017 32.6807 28.0499 32.6076 27.9377C32.5473 27.8785 32.4525 27.9202 32.3801 27.9169C32.1984 27.955 32.0178 27.9328 31.8398 27.8979C31.7173 27.9177 31.6679 28.0521 31.6438 28.1575C31.6271 28.2628 31.6725 28.3254 31.7274 28.4042C31.7457 28.4886 31.8496 28.6413 31.9296 28.5317C31.97 28.4662 32.0005 28.3819 32.0852 28.3663C32.1457 28.3507 32.206 28.3694 32.2646 28.3577C32.3514 28.3382 32.4117 28.253 32.5036 28.2542C32.5726 28.2538 32.7298 28.349 32.6535 28.4242C32.5946 28.4823 32.4796 28.4295 32.4556 28.4465C32.382 28.5402 32.3089 28.6436 32.2066 28.7122C32.1577 28.7492 32.0902 28.7521 32.042 28.7867C32.0237 28.8122 32.0586 28.8448 32.0706 28.8636C32.15 28.9487 32.1805 29.0247 32.2768 29.1114C32.3485 29.1989 32.4057 29.2674 32.2889 29.3457C32.2781 29.4082 32.3118 29.4687 32.3452 29.5172C32.4153 29.6072 32.5609 29.6272 32.5594 29.7612C32.5646 29.8585 32.4797 29.9378 32.4877 30.0349C32.4864 30.0832 32.4877 30.1367 32.4491 30.1715C32.4125 30.2057 32.3427 30.2449 32.2979 30.2054C32.2487 30.1294 32.2167 30.0351 32.1373 29.9833C32.1112 29.9629 32.0766 29.9662 32.0486 29.9513C31.8889 29.8641 31.9988 29.6357 31.9377 29.5111C31.8259 29.474 31.7551 29.3232 31.8497 29.2334C31.8764 29.1997 31.8705 29.1598 31.8685 29.1192C31.8671 29.0959 31.8538 29.0662 31.8309 29.0623C31.7494 29.0952 31.6404 29.1323 31.6096 29.2202L31.6122 29.2266C31.6545 29.2834 31.743 29.3123 31.707 29.3998C31.6455 29.5321 31.688 29.6759 31.6714 29.8136C31.6709 29.8579 31.6631 29.9003 31.672 29.9408C31.6851 29.9623 31.707 29.9795 31.7133 30.0057C31.7197 30.0914 31.6386 30.1664 31.5719 30.2085C31.502 30.2278 31.4277 30.2374 31.3558 30.2286C31.2215 30.2017 31.1817 29.9713 31.3007 29.9022C31.3323 29.7881 31.3612 29.668 31.3703 29.5506C31.3572 29.4961 31.3335 29.4315 31.288 29.399C31.2204 29.3981 31.1253 29.4506 31.082 29.3752C31.03 29.2693 31.1009 29.1489 31.1286 29.0448C31.165 28.9707 31.2427 28.9215 31.2691 28.8439C31.2926 28.7432 31.2633 28.6419 31.2972 28.5448C31.3238 28.4543 31.3999 28.3829 31.4288 28.2966C31.402 28.0684 31.4585 27.7917 31.6993 27.706C31.7471 27.6628 31.754 27.5871 31.8068 27.5478C31.8679 27.5084 31.9329 27.5601 31.99 27.5791H31.9896ZM34.2396 27.0923C34.2882 27.0581 34.3575 27.0054 34.4182 27.0355C34.4677 27.0776 34.4974 27.1642 34.4493 27.2178C34.4 27.2738 34.3202 27.2862 34.2585 27.3214C34.2164 27.3773 34.2048 27.4533 34.2069 27.5212C34.2672 27.5193 34.3313 27.4291 34.4005 27.4222C34.4548 27.4184 34.5018 27.4622 34.5135 27.5138C34.5661 27.6516 34.3824 27.6608 34.3167 27.7362C34.3755 27.7813 34.4558 27.7581 34.5099 27.8076C34.5678 27.8901 34.6642 27.9535 34.6899 28.0533C34.6965 28.2021 34.5262 28.0368 34.4718 28.0129C34.4112 27.9802 34.3507 27.9574 34.2848 27.9474C34.2378 27.9999 34.196 28.0801 34.2163 28.1499C34.243 28.2032 34.2941 28.2564 34.2791 28.3199C34.2669 28.356 34.2184 28.3625 34.191 28.3401C34.0751 28.2405 34.068 28.0643 33.9744 27.9462C33.9084 27.8047 33.95 27.6356 33.9828 27.4894C34.015 27.4056 34.0258 27.3113 34.0757 27.2362C34.1209 27.1793 34.1837 27.138 34.2393 27.0924L34.2396 27.0923ZM33.4566 29.3036C33.5428 29.2589 33.6302 29.1606 33.7332 29.1816C33.8552 29.1317 33.9707 29.3079 33.9186 29.4148C33.9047 29.4522 33.867 29.4726 33.8305 29.4817C33.7563 29.5 33.6871 29.5314 33.61 29.5153C33.5423 29.4959 33.4195 29.3778 33.4566 29.3036ZM35.2647 28.3874C35.305 28.3265 35.3807 28.3182 35.4461 28.3199C35.5678 28.2789 35.6633 28.1496 35.8058 28.2056C35.8744 28.2145 35.9267 28.2709 35.9894 28.2898C36.129 28.3042 36.2888 28.283 36.2707 28.4803C36.2604 28.6273 36.1308 28.8184 36.2568 28.9415C36.2986 28.95 36.3533 28.9421 36.3835 28.9816C36.4433 29.0684 36.3963 29.2108 36.4984 29.2691C36.7184 29.3296 36.8134 28.9898 36.9816 28.9022C37.0372 28.8632 37.1062 28.8576 37.1638 28.8259C37.2329 28.7831 37.2784 28.7222 37.3293 28.6616C37.3455 28.6419 37.3729 28.6207 37.3988 28.6194C37.4233 28.6053 37.4604 28.6066 37.4867 28.6068C37.7516 28.6316 37.8833 28.9489 38.1478 28.9693C38.2915 28.9649 38.4984 29.0016 38.4484 29.1772C38.449 29.1881 38.449 29.1984 38.4488 29.2055C38.4443 29.5643 38.4024 29.9221 38.4115 30.2815C38.4122 30.3697 38.4066 30.469 38.3268 30.5218C38.321 30.5335 38.3201 30.5449 38.3194 30.5556C38.3217 30.569 38.3248 30.5797 38.3314 30.5911C38.3673 30.6448 38.3577 30.7162 38.3585 30.7784C38.3574 30.9302 38.3658 31.0751 38.351 31.225C38.3448 31.3028 38.3449 31.3815 38.3371 31.4589C38.3348 31.4758 38.321 31.4928 38.3024 31.4907C38.1773 31.4308 38.1545 31.2528 38.0381 31.1762C37.9738 31.1164 37.8916 31.135 37.8168 31.1572C37.793 31.1628 37.767 31.1557 37.7438 31.1634C37.7296 31.1697 37.7164 31.1812 37.7004 31.1785C37.609 31.1255 37.7493 31.0031 37.7297 30.9292C37.714 30.8821 37.6553 30.8461 37.6447 30.7897C37.6196 30.7271 37.6541 30.6596 37.6425 30.5988C37.6015 30.4498 37.5586 30.2791 37.4344 30.1805C37.1606 30.0222 36.8859 29.8002 36.5854 29.7073C36.3534 29.8152 36.4378 29.6612 36.2854 29.5687C36.2175 29.5291 36.1038 29.5345 36.0975 29.4342C36.0806 29.3737 36.1134 29.3029 36.0785 29.2496C36.0188 29.2835 36.0162 29.3654 35.9864 29.4221C35.8988 29.5996 35.7862 29.6958 35.7574 29.4243C35.7517 29.3283 35.636 29.2854 35.5711 29.2328C35.5143 29.2106 35.4798 29.159 35.4919 29.097C35.5237 29.0173 35.6277 29.0815 35.6853 29.094C35.7307 29.0803 35.755 29.0358 35.801 29.022C35.8826 28.9874 35.978 28.9924 36.0545 29.034C36.0965 29.051 36.1002 28.9844 36.0754 28.9643C36.0071 28.9106 35.9215 28.9482 35.8455 28.9625C35.7456 28.9962 35.6402 28.9418 35.5592 28.8853C35.4906 28.8386 35.4833 28.7402 35.4178 28.6938C35.3225 28.6379 35.1954 28.6219 35.1351 28.5196C35.0995 28.4451 35.1614 28.4185 35.2173 28.4673C35.2175 28.4671 35.2178 28.467 35.2179 28.467C35.2429 28.447 35.2462 28.4121 35.2644 28.3875L35.2647 28.3874ZM34.7867 29.1157C34.7094 29.0684 34.6132 29.0903 34.5283 29.103C34.415 29.0971 34.2963 29.0874 34.1909 29.1404C34.1282 29.1633 34.05 29.2333 34.1087 29.2994C34.1428 29.3327 34.192 29.3378 34.2325 29.3582C34.2698 29.3976 34.3178 29.4322 34.375 29.4155C34.4267 29.4086 34.4577 29.3535 34.5127 29.3613C34.555 29.3687 34.59 29.4068 34.6365 29.4012C34.7119 29.3838 34.757 29.3598 34.8374 29.3953C34.9399 29.4433 35.0079 29.5553 35.1162 29.5865C35.1743 29.6016 35.2112 29.5559 35.1891 29.5012C35.1747 29.4617 35.1373 29.4382 35.1149 29.4039C35.0503 29.2854 34.9525 29.0706 34.787 29.1156L34.7867 29.1157ZM23.9542 0.448272C24.2881 0.504625 24.641 0.44071 24.9598 0.585372C24.9843 0.595618 25.0123 0.611352 25.0183 0.639894C25.0675 0.670754 25.1224 0.750403 25.0706 0.801633C24.9031 0.909214 24.6804 0.808097 24.4939 0.817611C24.3582 0.806146 24.242 0.888966 24.1084 0.888234C23.8744 0.850178 23.592 0.896285 23.407 0.721007C23.319 0.669412 23.2029 0.662947 23.1317 0.580981C23.0897 0.538777 23.0826 0.461324 23.1406 0.429976C23.2389 0.384724 23.3523 0.426317 23.4566 0.415339C23.5862 0.40363 23.7024 0.46047 23.8135 0.513651C23.8759 0.532679 23.8948 0.447906 23.9541 0.448272H23.9542ZM18.6435 24.9206C18.7368 25.0908 18.8969 25.2578 18.8405 25.468C18.8198 25.5838 18.8119 25.7171 18.7152 25.7981C18.6161 25.8541 18.4947 25.905 18.3795 25.8998C18.1777 25.8453 18.069 25.6173 18.1007 25.4194C18.0841 25.1797 18.1033 24.9392 18.1607 24.7068C18.1953 24.6007 18.0972 24.3465 18.2909 24.3869C18.3325 24.3462 18.3784 24.4013 18.4049 24.4331C18.5283 24.5714 18.5759 24.7539 18.6436 24.9206H18.6435ZM32.5586 31.9984C32.412 31.9631 32.5475 31.8062 32.5951 31.7363C32.646 31.6739 32.7225 31.6445 32.7981 31.6751C32.8475 31.6492 32.8829 31.5957 32.9126 31.5522C32.9246 31.5283 32.9519 31.4913 32.9818 31.5083C33.0445 31.4828 33.0794 31.5705 33.065 31.6206C33.0273 31.8175 32.8232 31.905 32.6604 31.9817C32.6275 31.9931 32.5945 32.0038 32.5586 31.9983V31.9984ZM33.1213 31.2926C33.083 31.3172 33.0171 31.3449 33.0248 31.3997C33.0313 31.4239 33.0543 31.4158 33.067 31.402C33.0683 31.4273 33.093 31.4384 33.1078 31.4559C33.1199 31.5088 33.0939 31.5927 33.1563 31.6242C33.2291 31.6428 33.2916 31.587 33.3465 31.547C33.4392 31.4802 33.5457 31.4336 33.6515 31.3872C33.7349 31.3622 33.917 31.2831 33.7907 31.1858C33.6761 31.1624 33.561 31.2288 33.4465 31.2373C33.3359 31.241 33.223 31.2439 33.1211 31.2926H33.1213ZM29.9341 31.1124C30.0025 31.0696 30.096 31.1581 30.0704 31.231C30.0435 31.2911 29.9951 31.3407 29.9574 31.3948C29.9376 31.4183 29.91 31.4456 29.8769 31.4416C29.8415 31.4319 29.8346 31.3905 29.8127 31.3684C29.7815 31.3401 29.7382 31.3238 29.715 31.2866C29.6909 31.2444 29.6833 31.1729 29.7354 31.149C29.7976 31.132 29.8703 31.0873 29.9338 31.1122L29.9341 31.1124ZM30.2857 31.4154C30.323 31.3503 30.3634 31.2772 30.4253 31.2328C30.4938 31.1895 30.5898 31.238 30.6323 31.297C30.6939 31.2934 30.754 31.3681 30.7387 31.4275C30.7206 31.4754 30.6571 31.4666 30.6158 31.4719C30.5318 31.4893 30.4527 31.5518 30.3612 31.5386C30.3046 31.5335 30.2697 31.4676 30.2857 31.4154ZM31.322 31.2802C31.5767 30.9906 31.8499 31.3062 32.1463 31.2324C32.1958 31.2398 32.2475 31.2265 32.2957 31.2445C32.373 31.2838 32.2813 31.3682 32.2343 31.3914C32.0953 31.4436 31.9367 31.4622 31.7888 31.4489C31.6571 31.406 31.5229 31.4371 31.3888 31.428C31.3042 31.4182 31.248 31.3489 31.3221 31.2801L31.322 31.2802ZM29.3256 31.006C29.247 31.0039 29.1625 30.9914 29.097 30.9412C29.016 30.835 28.9935 30.6694 28.8351 30.6505C28.7057 30.6509 28.6001 30.5866 28.4889 30.5285C28.4143 30.4891 28.3646 30.5655 28.3261 30.6174C28.1762 30.7368 27.965 30.6435 27.7917 30.6306C27.7066 30.6065 27.6741 30.5091 27.5957 30.4692C27.5494 30.4294 27.4909 30.4197 27.432 30.4165C27.3491 30.4022 27.2669 30.3724 27.1844 30.3456C27.0839 30.3277 26.9645 30.3201 26.8706 30.3642C26.8405 30.3847 26.8379 30.4254 26.8088 30.4473C26.7493 30.511 26.6295 30.4997 26.5807 30.5755C26.5645 30.7153 26.7833 30.692 26.8629 30.7593C26.9028 30.7815 26.9246 30.8192 26.9448 30.8586C27.0165 30.9688 27.1672 30.9141 27.2752 30.9581C27.3846 30.9881 27.4923 31.0729 27.6117 31.0479C27.7803 30.986 27.953 31.015 28.1105 31.097C28.3609 31.2509 28.6436 31.1997 28.9202 31.206C29.166 31.2069 29.3529 31.3343 29.5732 31.4164C29.7096 31.4291 29.5922 31.2421 29.6062 31.1719C29.6116 31.0947 29.6245 30.9879 29.5301 30.9618C29.4587 30.9275 29.3914 30.9797 29.3257 31.0062L29.3256 31.006Z" fill="#B1B1B1"/>
</g>
<defs>
<clipPath id="clip0_208_8315">
<rect width="40" height="32" fill="white"/>
</clipPath>
</defs>
</svg>